<?xml version="1.0" encoding="UTF-8" standalone="no"?>
<!DOCTYPE svg PUBLIC "-//W3C//DTD SVG 1.1//EN" "http://www.w3.org/Graphics/SVG/1.1/DTD/svg11.dtd">
<svg version="1.1" xmlns="http://www.w3.org/2000/svg" xmlns:xlink="http://www.w3.org/1999/xlink" preserveAspectRatio="xMidYMid meet" viewBox="0 0 743 665" width="743" height="665"><defs><path d="M625.21 405.29C654.69 330.95 648.02 247.13 607.13 178.4C579.67 182.2 442.36 201.21 195.19 235.44C432.05 186.07 563.65 158.65 589.96 153.16C541.28 89.78 465.89 52.66 385.97 52.73C243.81 52.73 128.57 167.97 128.57 310.14C128.57 321.89 129.37 333.62 130.96 345.26C229.81 357.27 526.36 393.28 625.21 405.29Z" id="j4jlFmp70v"></path><path d="M145.77 402.81C182.98 499.18 276.48 567.54 385.97 567.54C488.71 567.54 577.37 507.35 618.66 420.31C524.08 416.81 240.35 406.31 145.77 402.81Z" id="a294nTCpa"></path><path d="M333.11 665.17C234.28 665.17 145.5 641.51 84.5 603.92C44.7 579.4 16.72 548.94 5.49 515.29C1.87 504.57 0.01 493.33 0 482.02C0 380.87 276.05 -75.39 333.11 298.87C390.17 673.13 666.22 380.87 666.22 482.02C666.22 583.17 517.08 665.17 333.11 665.17Z" id="cvKQuH9eu"></path><path d="M235.2 616.07C179.15 616.07 127.2 611.58 84.5 603.92C44.7 579.4 16.72 548.94 5.49 515.29C50.66 494.7 136.61 480.8 235.2 480.8C380.71 480.8 498.66 511.09 498.66 548.44C498.66 585.79 380.71 616.07 235.2 616.07Z" id="auPCiKcgx"></path><path d="M246.3 126.28C246.3 126.28 206.04 121.13 180.22 174.86C156.15 224.95 122.94 273.3 174.87 285.03C175.5 283.08 178.63 273.35 184.25 255.83C187.74 274.65 189.68 285.11 190.06 287.2C197.46 287.73 204.88 287.86 212.29 287.58C267.91 285.78 320.88 288.11 319.17 268.15C316.9 241.61 328.57 197.15 308.48 163.2C287.6 127.92 258.73 133.66 246.3 126.28Z" id="d2D4IFhzku"></path><path d="M169.24 483.64C167.94 487.31 165.92 490.71 164.73 494.42C160.92 506.25 166.2 519.44 174.63 528.58C181.94 536.47 191.38 542.07 201.8 544.71C209.41 546.63 217.32 546.9 225.16 547.17C246.86 547.9 269.13 548.56 289.69 541.59C296.19 539.33 302.47 536.48 308.44 533.07C310.33 532.17 311.99 530.86 313.31 529.24C314.88 527 315.08 524.11 315.06 521.38C315.02 512.18 313.15 503.02 313.59 493.83C313.84 488.74 314.79 483.65 314.32 478.58C313.26 467.07 304.12 456.77 292.82 454.34C286.98 453.09 280.93 453.77 274.99 454.34C259.57 455.82 244.09 456.51 228.6 456.42C212.77 456.31 197.05 453.9 181.3 453.65C176.64 453.57 176.74 455.01 175.25 459.51C173.89 463.66 172.77 467.89 171.91 472.17C171.13 476.02 170.56 479.94 169.24 483.64Z" id="a101DyXQOh"></path><path d="M212.85 256.34C210.09 260.11 205.6 262.26 202.64 265.86C198.18 271.29 197.93 278.92 197.91 285.94C197.89 292.41 198.02 299.31 201.63 304.68C203.97 308.16 207.53 310.6 211.01 312.95C224.54 322.07 239.16 331.35 255.47 331.65C262.22 331.77 269.47 330.03 273.91 324.94C275.83 322.54 277.34 319.85 278.38 316.97C282.55 306.69 285.08 295.82 285.87 284.75C286.24 279.54 286.21 274.19 284.45 269.27C282.46 263.75 278.46 259.21 275.81 253.97C272.68 247.74 271.54 240.7 272.53 233.8C272.66 233.32 272.62 232.8 272.42 232.34C271.97 231.84 271.33 231.58 270.66 231.63C267.43 231.4 241.56 229.54 238.32 229.3C235.31 229.15 232.31 228.81 229.35 228.28C227.6 227.92 223 225.45 221.34 226.1C218.26 227.32 217.45 241.66 216.82 244.96C216.06 248.94 215.24 253.07 212.85 256.34Z" id="g6IKQfi8w"></path><path d="M212.85 257.35C210.09 261.12 205.6 263.27 202.64 266.87C198.18 272.3 197.93 279.93 197.91 286.95C197.89 293.42 198.02 300.32 201.63 305.69C203.97 309.17 207.53 311.61 211.01 313.96C224.54 323.08 239.16 332.35 255.47 332.66C262.22 332.78 269.47 331.03 273.91 325.94C275.83 323.55 277.34 320.86 278.38 317.98C282.55 307.7 285.08 296.82 285.87 285.76C286.24 280.55 286.21 275.2 284.45 270.28C282.46 264.76 278.46 260.21 275.81 254.98C272.68 248.75 271.54 241.71 272.53 234.81C272.66 234.33 272.62 233.81 272.42 233.35C271.97 232.85 271.33 232.59 270.66 232.64C267.43 232.41 241.56 230.55 238.32 230.31C235.31 230.16 232.31 229.82 229.35 229.29C227.6 228.93 223 226.46 221.34 227.11C218.26 228.33 217.45 242.67 216.82 245.97C216.06 249.95 215.24 254.08 212.85 257.35Z" id="c1eHoGNfKT"></path><path d="M247.75 154.41C221.54 154.41 200.3 175.65 200.3 201.85C200.3 228.06 221.54 249.3 247.75 249.3C273.95 249.3 295.19 228.06 295.19 201.85C295.19 175.65 273.95 154.41 247.75 154.41Z" id="a7hjhsbSd"></path><path d="M231.81 314.77C235.03 316.28 238.66 316.66 242.22 316.76C250.77 317 260.04 315.43 265.99 309.28C273.66 301.36 273.41 288.57 279.42 279.33C279.9 278.49 280.56 277.76 281.36 277.21C282.36 276.66 283.5 276.4 284.65 276.45C292.24 276.38 298.86 281.3 304.82 286C307.5 288.1 310.24 290.28 311.92 293.23C313.1 295.53 313.91 298.01 314.32 300.56C317.28 315.02 318.24 329.8 319.19 344.53C319.72 352.67 320.24 360.81 320.2 368.96C320.08 395.82 313.83 422.22 307.63 448.35C306.83 451.72 305.73 455.48 302.67 457.1C301.31 457.71 299.84 458.07 298.35 458.15C280.57 460.24 262.75 462.33 244.85 462.61C234.37 462.77 226 462.15 223.9 462.1C222.7 462.08 221.51 461.88 220.37 461.48C218.83 460.74 217.51 459.62 216.53 458.22C206.85 446.02 206.27 429.15 206.34 413.57C206.56 356.45 210.01 310.84 210.42 299.42C210.63 296.28 210.68 292.47 208.42 290C212.49 296.52 218.15 302.55 223.48 308.12C225.95 310.7 228.57 313.26 231.81 314.77Z" id="c5pB1anKJ"></path><path d="M197.73 265.84C184.99 279.27 161.73 278.77 150.08 293.16C145.97 298.22 143.84 304.58 142.28 310.9C140.06 319.84 138.88 329.6 142.59 338.03C146.16 346.14 153.68 351.75 158.79 359C164.39 366.96 166.91 376.62 169.33 386.05C171.11 393.01 172.91 400.14 172.21 407.3C171.42 415.43 167.49 422.88 165.17 430.71C162.84 438.55 162.44 447.88 167.81 454.03C171.76 458.56 177.95 460.35 183.87 461.36C191.42 462.64 199.1 463.01 206.76 463.35C213.52 463.65 220.98 463.71 226.18 459.37C230.28 455.95 232.06 450.39 232.3 445.06C232.53 439.72 231.42 434.43 230.72 429.13C230 423.64 229.72 418.1 229.49 412.56C227.93 375.32 229.11 345.48 229.06 338.02C229.22 332.85 229.41 327.61 228.31 322.56C226.86 315.91 223.26 309.96 220.26 303.85C214.31 291.72 211.5 279.94 212.42 266.46C213.32 253.15 219.13 243.01 213.43 253.33C211.82 256.23 200.01 263.44 197.73 265.84Z" id="aKeugqan"></path><path d="M293.89 259.29C296.74 260.78 299.89 261.55 302.98 262.44C314.31 265.71 325.08 270.66 334.94 277.11C336.99 278.31 338.8 279.88 340.29 281.73C342.02 284.14 342.65 287.16 343.24 290.08C344.76 297.61 346.29 305.23 345.95 312.9C345.59 321.05 343.13 328.94 340.7 336.72C339.79 339.63 332.51 362.9 331.6 365.8C324.81 387.51 317.98 409.43 316.07 432.1C315.01 444.66 315.48 457.3 317.47 469.75C317.67 471 317.84 472.43 317.01 473.39C316.41 473.99 315.62 474.35 314.78 474.42C310.39 475.11 306.14 472.87 302.17 470.89C290.01 464.84 277.03 460.59 263.65 458.28C268.88 450.73 272.92 442.41 275.61 433.62C277.15 428.05 278.35 422.38 279.23 416.66C279.65 414.22 283.04 394.64 283.46 392.19C285.01 383.22 286.57 374.22 287.09 365.13C287.41 361.72 287.21 358.28 286.5 354.93C285.69 351.7 284.08 348.74 282.64 345.74C275.66 331.23 272.39 314.68 275.13 298.82C276.33 291.88 278.67 284.93 277.69 277.95C276.76 271.24 277.73 266.03 276.01 259.39C268.94 232.14 275.46 249.62 280.05 254.34C282.49 256.85 290.78 257.68 293.89 259.29Z" id="g4IyfKaiB"></path><path d="M139.65 335.41C138.95 338.72 138.65 342.11 138.75 345.5C138.71 350.61 138.68 355.82 140.25 360.68C141.26 363.81 142.9 366.7 144.09 369.76C145.74 374.05 146.47 378.63 146.24 383.22C145.92 389.58 143.77 395.74 143.6 402.11C143.33 412.11 147.96 421.51 152.47 430.44C156.78 419.77 168.92 414.62 179.59 418.93C180.69 419.37 181.74 419.91 182.75 420.53C183.94 419.43 184.07 417.62 184.12 416C184.62 398.6 184.98 384.67 185.08 381.19C185.57 363.24 186.04 345.05 181.91 327.58C180.04 319.69 177.14 311.83 171.82 305.71C169.02 302.49 159.52 294 154.92 297.61C152.86 299.23 153.34 303.65 153.01 305.89C152.52 309.42 151.49 312.87 149.95 316.09C146.78 322.69 141.46 328.31 139.65 335.41Z" id="a5F7GF0u2E"></path><path d="M348.5 311.68C348.59 326.73 348.14 338.77 348.1 341.77C347.94 346.91 347.71 352.11 346.15 357.01C345.12 360.24 343.54 363.27 342.48 366.48C339.3 376.13 341.04 386.59 341.31 396.74C341.5 400.02 341.22 403.32 340.48 406.52C338.8 412.81 334.29 417.9 331.15 423.6C328.16 429.01 326.36 435.08 322.79 440.13C319.22 445.19 313.04 449.19 307.06 447.64C302.52 446.46 299.3 442.45 297.07 438.33C292.2 429.26 290.54 418.83 292.35 408.7C294.59 396.38 301.82 385.45 304.43 373.21C308.01 356.39 302.57 339.04 302.73 321.85C302.66 319.15 303.02 316.46 303.81 313.89C305.18 309.96 308.12 306.82 310.84 303.67C314.23 299.74 317.38 295.6 320.28 291.28C322.22 288.38 324.86 280.93 328.31 280.31C336.01 278.92 344.97 291.13 346.88 297.08C348.38 301.76 348.47 306.76 348.5 311.68Z" id="ffqWyKOj4"></path><path d="M96.99 463.31C79.07 464.3 65.34 479.64 66.33 497.56C66.4 498.93 66.56 500.29 66.81 501.63C67.72 506.57 69.75 511.23 71.97 515.74C75.43 522.75 79.57 529.74 85.97 534.24C89.71 536.87 94.04 538.5 98.32 540.12C101.68 541.38 128.63 551.54 132 552.8C136.95 554.67 141.91 556.54 146.91 558.27C172.05 566.96 198.27 572.17 224.82 573.76C232.91 574.24 241.12 574.37 249.01 572.53C250.88 572.09 252.88 571.44 253.96 569.86C254.6 568.74 254.98 567.49 255.07 566.2C255.27 564.75 256.93 553.14 257.14 551.69C257.43 549.65 257.71 547.5 256.96 545.57C256.01 543.13 253.63 541.6 251.37 540.3C229.22 527.58 203.36 520.56 184.73 503.1C180.34 498.99 176.67 492.48 171.33 489.69C165.29 486.52 158.17 484.72 151.92 481.8C138.26 475.42 124.83 468.1 110.02 464.69C105.77 463.62 101.38 463.16 96.99 463.31Z" id="c1cNKUetNX"></path><path d="M214.44 522.85C213.28 523.27 174.1 501.31 172.92 500.96C162.23 497.75 151.49 494.52 141.34 489.83C139.3 488.88 128.07 484.45 128.58 481.87C129.16 478.96 141.54 483.59 143.65 484.25C155.55 487.98 205.82 513.83 214.44 522.85Z" id="h15aK76lm9"></path><path d="M294.07 580.73C294.55 580.11 294.76 579.33 294.66 578.56C294.63 568.67 294.61 560.76 294.6 558.79C288.92 556.08 282.56 555.21 276.32 554.38C273.4 553.99 250.11 550.87 247.2 550.48C247.86 550.57 242.64 563.03 243.44 564.69C244.85 567.62 255.64 570.22 258.68 571.6C269.27 576.41 280.26 581.7 292.18 581.28C292.85 581.33 293.52 581.14 294.07 580.73Z" id="a3AQXw9msy"></path><path d="M185.62 564.65C181.1 570.08 183.02 578.17 185.18 584.89C185.5 586.25 186.14 587.52 187.05 588.58C188.52 590.03 190.77 590.24 192.83 590.37C197.85 590.69 203.19 590.93 207.57 588.48C209.64 587.31 211.36 585.61 213.29 584.22C216.52 582.07 220.07 580.45 223.81 579.41C230.69 577.25 237.76 575.79 244.93 575.06C247.74 574.77 250.61 574.59 253.25 573.59C255.9 572.6 258.34 570.62 259.11 567.9C260.13 564.31 258.04 560.65 256.04 557.5C253.54 553.57 250.9 549.44 247.18 546.55C241.75 542.34 239.07 545.57 233.6 548.27C223.26 553.37 212.2 556.9 200.81 558.72C195.32 559.59 189.18 560.37 185.62 564.65Z" id="f7nEUv2la"></path><path d="M151.53 553.35C147.29 552.1 142.97 550.83 138.54 550.84C134.11 550.84 129.48 552.29 126.61 555.66C123.9 558.84 123.13 563.18 122.45 567.3C122.31 568.18 121.15 575.23 121.01 576.11C120.28 580.59 119.54 585.15 120.2 589.64C120.86 594.13 123.15 598.62 127.14 600.79C131.97 603.43 137.89 602.14 143.28 601.04C154.17 598.81 165.25 597.62 176.36 597.49C180.54 597.44 184.93 597.49 188.62 595.53C193.01 593.21 195.63 588.29 196.09 583.34C196.77 575.81 194.26 565.98 186.44 563.67C179.46 561.61 155.02 554.38 151.53 553.35Z" id="h7zZvXGjQM"></path><path d="M318.76 549.8C324.86 547.66 331.48 547.66 337.94 547.68C340.32 547.69 342.85 547.74 344.82 549.06C347.67 550.96 348.4 554.75 348.89 558.14C350.35 568.36 351.52 576.54 351.81 578.58C352.36 582.43 352.91 586.37 352.05 590.16C351.19 593.95 348.61 597.6 344.85 598.58C340.28 599.76 335.81 596.85 331.5 594.93C320.73 590.14 308.2 591.37 296.97 587.79C294.88 587.13 292.65 586.11 291.8 584.09C291.42 582.96 291.28 581.75 291.4 580.56C291.59 573.99 290.21 565.02 292.18 558.74C293.96 553.09 300.85 554.68 305.9 554.68C310.43 553.89 314.42 551.31 318.76 549.8Z" id="b6649pztc"></path><path d="M401.14 455.01C406.85 455.63 412.73 457.22 416.9 461.17C421.97 465.98 423.6 473.42 423.74 480.41C423.96 494.34 419.34 507.9 410.68 518.8C408.56 521.56 406.04 523.98 403.21 525.99C400.15 527.9 396.89 529.47 393.49 530.67C385.95 533.65 325.6 557.45 318.06 560.43C298.21 568.25 278.3 576.1 257.6 581.26C255.26 582.39 252.44 581.41 251.31 579.07C251.29 579.03 251.27 579 251.26 578.96C244.65 569.52 239.1 559.38 234.73 548.72C234.01 547.85 234.14 546.57 235.01 545.85C235.2 545.7 235.4 545.59 235.63 545.51C240.96 542.44 283.64 517.92 288.98 514.85C292.8 512.66 296.67 510.43 299.84 507.37C302.15 505.14 304.03 502.51 305.42 499.61C306.52 497.3 306.62 491.85 308.04 490.14C309.42 488.47 314.15 488.33 316.34 487.68C319.42 486.73 322.44 485.59 325.37 484.26C337.31 478.92 347.93 471.16 359.38 464.91C365.79 461.24 372.65 458.4 379.78 456.46C386.76 454.72 393.99 454.22 401.14 455.01Z" id="b620elqsn"></path><path d="M319.42 499.64C316.32 502.05 264.63 531.11 263.9 534.97C272.37 536.4 326.36 498.62 334.09 494.86C341.81 491.09 348.66 485.77 355.45 480.5C357.18 479.15 364.5 475.11 359.54 473.61C356.74 472.76 351.6 477.98 349.54 479.36C340.37 486.24 328.5 492.57 319.42 499.64Z" id="l2F2zWB1bj"></path><path d="M206 255.01C199.19 255.01 193.67 260.53 193.67 267.34C193.67 267.64 193.67 269.14 193.67 271.85L192.8 271.85L192.8 281.94L193.67 281.94L193.67 289.01L192.8 289.01L192.8 295.07L193.67 295.07C193.67 339.76 193.67 364.58 193.67 369.55C193.67 376.36 199.19 381.88 206 381.88C214.05 381.88 278.42 381.88 286.46 381.88C293.27 381.88 298.79 376.36 298.79 369.55C298.79 359.33 298.79 277.56 298.79 267.34C298.79 260.53 293.27 255.01 286.46 255.01C286.46 255.01 214.05 255.01 206 255.01Z" id="a92Jn1cFK"></path><path d="M168.25 457.37C172.3 459.4 177.29 459.04 181.34 457.02C185.36 454.87 188.65 451.57 190.79 447.55C195.23 439.71 196.15 430.34 195.6 421.36C195.04 412.37 193.12 403.53 192.27 394.57C191.66 388.05 191.61 381.5 191.56 374.96C191.55 373.58 191.57 372.1 192.38 370.99C193.36 369.65 195.16 369.28 196.76 368.81C205.71 366.15 211.65 357.76 215.91 349.45C218.75 343.9 221.23 337.83 220.68 331.62C220.13 325.41 215.67 319.15 209.46 318.52C204.35 318 199.63 321.24 195.94 324.82C186.63 333.91 180.65 345.87 178.96 358.76C178.15 365.08 178.38 371.57 176.66 377.7C172.99 390.79 161.52 398.81 155.8 410.59C149.5 423.57 152.98 438.31 160.63 449.79C162.65 452.8 165.01 455.75 168.25 457.37Z" id="aV5HP0zUH"></path><path d="M315.63 413.11C311.79 414.65 307.56 414.91 303.57 413.85C299.55 412.74 296.28 409.81 294.73 405.95C294.12 404.03 293.79 402.03 293.74 400.01C293.16 391.18 293.38 382.09 296.59 373.84C297.83 370.66 299.5 367.64 300.47 364.37C301.58 360.65 301.76 356.71 301.93 352.82C302.04 350.41 302.88 331.14 302.99 328.74C303.16 326.99 303.04 325.22 302.63 323.51C301.58 320.03 298.32 317.76 295.33 315.68C288.11 310.66 280.98 304.81 277.48 296.74C276.41 294.27 275.71 291.53 276.25 288.89C277.24 284.11 282.06 281.01 286.83 279.97C299.61 277.18 312.23 285.27 315.02 298.04C315.09 298.38 315.16 298.71 315.22 299.05C315.69 301.77 315.68 304.54 315.96 307.29C316.54 313.11 318.39 318.73 319.55 324.46C322.4 338.59 320.92 353.2 323.74 367.33C326.09 379.15 334.98 386.85 329.5 399.78C326.87 405.91 321.86 410.72 315.63 413.11Z" id="c1nWrO3xTD"></path><path d="M247.31 289.01C241.73 289.01 237.22 293.53 237.22 299.11C237.22 304.68 241.73 309.2 247.31 309.2C252.88 309.2 257.4 304.68 257.4 299.11C257.4 293.53 252.88 289.01 247.31 289.01Z" id="cHeFNibOt"></path><path d="M269.02 144.35C269.02 144.35 249.15 180.75 200.46 195.86C199.93 193.7 197.28 182.94 192.51 163.58C233.32 153.32 258.82 146.91 269.02 144.35Z" id="b1vr36F9m9"></path><path d="M493.96 92.14C477.38 92.14 463.94 105.8 463.94 122.65C463.94 133.22 463.94 217.72 463.94 228.28C463.9 236.17 470.22 242.59 478.05 242.63C478.05 242.63 478.05 242.63 478.06 242.63C488.77 242.63 574.53 242.63 585.25 242.63C588.81 255.06 597.77 272.2 620.31 279.83C619.89 277.35 617.77 264.95 613.95 242.63C643.23 242.63 659.5 242.63 662.75 242.63C670.58 242.6 676.9 236.17 676.87 228.28C676.87 228.28 676.87 228.28 676.87 228.28C676.87 216.1 676.87 118.67 676.87 106.49C676.91 98.6 670.59 92.18 662.75 92.14C662.75 92.14 662.75 92.14 662.75 92.14C628.99 92.14 510.84 92.14 493.96 92.14Z" id="h2JetFBY98"></path><linearGradient id="gradientbYSXzViOq" gradientUnits="userSpaceOnUse" x1="570.4" y1="279.83" x2="570.4" y2="92.14"><stop style="stop-color: #808080;stop-opacity: 0.25" offset="1%"></stop><stop style="stop-color: #808080;stop-opacity: 0.12" offset="54%"></stop><stop style="stop-color: #808080;stop-opacity: 0.1" offset="100%"></stop></linearGradient><path d="M496.07 95.7C479.98 95.7 466.93 108.83 466.93 125.04C466.93 135.19 466.93 216.43 466.93 226.58C466.93 234.2 473.06 240.37 480.62 240.37C491.03 240.37 574.27 240.37 584.67 240.37C588.13 252.32 596.83 268.79 618.71 276.13C618.29 273.75 616.23 261.83 612.51 240.38C640.94 240.38 656.73 240.38 659.89 240.38C667.45 240.38 673.58 234.21 673.58 226.59C673.58 214.88 673.58 121.21 673.58 109.5C673.59 101.88 667.47 95.71 659.91 95.7C659.91 95.7 512.45 95.7 496.07 95.7Z" id="cjIFe6I95"></path><path d="M617.5 122.06C617.5 122.06 617.5 122.06 617.5 122.06C617.5 128.45 617.5 132.01 617.5 132.72C617.5 132.72 617.5 132.72 617.5 132.72C566.69 132.72 538.46 132.72 532.81 132.72C532.81 132.72 532.81 132.72 532.81 132.72C532.81 126.32 532.81 122.77 532.81 122.06C532.81 122.06 532.81 122.06 532.81 122.06C583.62 122.06 611.85 122.06 617.5 122.06Z" id="e3AWYbQyCO"></path><path d="M617.02 141.74C617.02 141.74 617.02 141.74 617.02 141.74C617.02 148.13 617.02 151.68 617.02 152.39C617.02 152.39 617.02 152.39 617.02 152.39C597.97 152.39 587.38 152.39 585.26 152.39C585.26 152.39 585.26 152.39 585.26 152.39C585.26 146 585.26 142.45 585.26 141.74C585.26 141.74 585.26 141.74 585.26 141.74C604.32 141.74 614.9 141.74 617.02 141.74Z" id="b3xWkwaJpP"></path><path d="M616.54 161.41C616.54 161.41 616.54 161.41 616.54 161.41C616.54 167.8 616.54 171.36 616.54 172.07C616.54 172.07 616.54 172.07 616.54 172.07C578.96 172.07 558.09 172.07 553.91 172.07C553.91 172.07 553.91 172.07 553.91 172.07C553.91 165.67 553.91 162.12 553.91 161.41C553.91 161.41 553.91 161.41 553.91 161.41C591.49 161.41 612.36 161.41 616.54 161.41Z" id="a2gRinpOb"></path><path d="M616.06 181.09C616.06 181.09 616.06 181.09 616.06 181.09C616.06 187.48 616.06 191.03 616.06 191.75C616.06 191.75 616.06 191.75 616.06 191.75C569.98 191.75 544.38 191.75 539.26 191.75C539.26 191.75 539.26 191.75 539.26 191.75C539.26 185.35 539.26 181.8 539.26 181.09C539.26 181.09 539.26 181.09 539.26 181.09C585.34 181.09 610.94 181.09 616.06 181.09Z" id="c5ZqYYmWBk"></path><path d="M615.58 200.76C615.58 200.76 615.58 200.76 615.58 200.76C615.58 207.16 615.58 210.71 615.58 211.42C615.58 211.42 615.58 211.42 615.58 211.42C591.28 211.42 577.78 211.42 575.08 211.42C575.08 211.42 575.08 211.42 575.08 211.42C575.08 205.02 575.08 201.47 575.08 200.76C575.08 200.76 575.08 200.76 575.08 200.76C599.38 200.76 612.88 200.76 615.58 200.76Z" id="d1JN7wdVco"></path><path d="M534.58 29.83C542.33 29.83 548.62 36.25 548.62 44.17C548.62 56.33 548.62 153.64 548.62 165.8C548.62 173.72 542.33 180.13 534.58 180.13C523.92 180.13 438.67 180.13 428.01 180.13C424.46 192.55 415.55 209.67 393.14 217.29C393.57 214.81 395.68 202.43 399.47 180.13C370.37 180.13 354.2 180.13 350.96 180.13C343.21 180.13 336.93 173.72 336.93 165.8C336.93 153.64 336.93 56.32 336.93 44.16C336.91 36.25 343.19 29.83 350.94 29.83C387.67 29.83 516.22 29.83 534.58 29.83Z" id="a4JARQUlX"></path><linearGradient id="gradienta5fUP2mhU" gradientUnits="userSpaceOnUse" x1="442.76" y1="217.29" x2="442.76" y2="29.83"><stop style="stop-color: #808080;stop-opacity: 0.25" offset="1%"></stop><stop style="stop-color: #808080;stop-opacity: 0.12" offset="54%"></stop><stop style="stop-color: #808080;stop-opacity: 0.1" offset="100%"></stop></linearGradient><path d="M532.32 33.56C539.88 33.56 546.01 39.73 546.01 47.35C546.01 59.06 546.01 152.74 546.01 164.45C546.01 172.06 539.88 178.23 532.32 178.23C521.91 178.23 438.69 178.23 428.29 178.23C424.83 190.18 416.13 206.65 394.26 213.99C394.67 211.61 396.73 199.69 400.43 178.23C372 178.23 356.21 178.23 353.05 178.23C345.49 178.23 339.36 172.06 339.36 164.45C339.36 152.74 339.36 59.07 339.36 47.36C339.35 39.75 345.48 33.57 353.04 33.56C353.05 33.56 353.05 33.56 353.05 33.56C353.05 33.56 514.39 33.56 532.32 33.56Z" id="b1D9LEaWoG"></path><path d="M485.03 56.07C485.03 56.07 485.03 56.07 485.03 56.07C485.03 62.46 485.03 66.02 485.03 66.73C485.03 66.73 485.03 66.73 485.03 66.73C434.22 66.73 405.99 66.73 400.35 66.73C400.35 66.73 400.35 66.73 400.35 66.73C400.35 60.33 400.35 56.78 400.35 56.07C400.35 56.07 400.35 56.07 400.35 56.07C451.16 56.07 479.39 56.07 485.03 56.07Z" id="g19A1CYupA"></path><path d="M432.59 75.74C432.59 75.74 432.59 75.74 432.59 75.74C432.59 82.14 432.59 85.69 432.59 86.4C432.59 86.4 432.59 86.4 432.59 86.4C413.53 86.4 402.94 86.4 400.83 86.4C400.83 86.4 400.83 86.4 400.83 86.4C400.83 80 400.83 76.45 400.83 75.74C400.83 75.74 400.83 75.74 400.83 75.74C419.88 75.74 430.47 75.74 432.59 75.74Z" id="a1ncHIwE6v"></path><path d="M463.93 95.41C463.93 95.41 463.93 95.41 463.93 95.41C463.93 101.81 463.93 105.36 463.93 106.07C463.93 106.07 463.93 106.07 463.93 106.07C426.36 106.07 405.48 106.07 401.31 106.07C401.31 106.07 401.31 106.07 401.31 106.07C401.31 99.68 401.31 96.13 401.31 95.41C401.31 95.41 401.31 95.41 401.31 95.41C438.88 95.41 459.76 95.41 463.93 95.41Z" id="f1eKYCiCtQ"></path><path d="M478.59 115.09C478.59 115.09 478.59 115.09 478.59 115.09C478.59 121.49 478.59 125.04 478.59 125.75C478.59 125.75 478.59 125.75 478.59 125.75C432.51 125.75 406.91 125.75 401.79 125.75C401.79 125.75 401.79 125.75 401.79 125.75C401.79 119.36 401.79 115.8 401.79 115.09C401.79 115.09 401.79 115.09 401.79 115.09C447.87 115.09 473.47 115.09 478.59 115.09Z" id="a55J8YaMSo"></path><path d="M442.76 134.77C442.76 134.77 442.76 134.77 442.76 134.77C442.76 141.16 442.76 144.71 442.76 145.42C442.76 145.42 442.76 145.42 442.76 145.42C418.47 145.42 404.97 145.42 402.27 145.42C402.27 145.42 402.27 145.42 402.27 145.42C402.27 139.03 402.27 135.48 402.27 134.77C402.27 134.77 402.27 134.77 402.27 134.77C426.57 134.77 440.07 134.77 442.76 134.77Z" id="b2EVooDXW6"></path></defs><g><g><g><use xlink:href="#j4jlFmp70v" opacity="1" fill="#f2f2f2" fill-opacity="1"></use><g><use xlink:href="#j4jlFmp70v" opacity="1" fill-opacity="0" stroke="#000000" stroke-width="1" stroke-opacity="0"></use></g></g><g><use xlink:href="#a294nTCpa" opacity="1" fill="#f2f2f2" fill-opacity="1"></use><g><use xlink:href="#a294nTCpa" opacity="1" fill-opacity="0" stroke="#000000" stroke-width="1" stroke-opacity="0"></use></g></g><g><use xlink:href="#cvKQuH9eu" opacity="1" fill="#e56767" fill-opacity="1"></use><g><use xlink:href="#cvKQuH9eu" opacity="1" fill-opacity="0" stroke="#000000" stroke-width="1" stroke-opacity="0"></use></g></g><g><use xlink:href="#auPCiKcgx" opacity="1" fill="#000000" fill-opacity="1"></use><g><use xlink:href="#auPCiKcgx" opacity="1" fill-opacity="0" stroke="#000000" stroke-width="1" stroke-opacity="0"></use></g></g><g><use xlink:href="#d2D4IFhzku" opacity="1" fill="#2f2e41" fill-opacity="1"></use><g><use xlink:href="#d2D4IFhzku" opacity="1" fill-opacity="0" stroke="#000000" stroke-width="1" stroke-opacity="0"></use></g></g><g><use xlink:href="#a101DyXQOh" opacity="1" fill="#2f2e41" fill-opacity="1"></use><g><use xlink:href="#a101DyXQOh" opacity="1" fill-opacity="0" stroke="#000000" stroke-width="1" stroke-opacity="0"></use></g></g><g><use xlink:href="#g6IKQfi8w" opacity="1" fill="#a0616a" fill-opacity="1"></use><g><use xlink:href="#g6IKQfi8w" opacity="1" fill-opacity="0" stroke="#000000" stroke-width="1" stroke-opacity="0"></use></g></g><g><use xlink:href="#c1eHoGNfKT" opacity="1" fill="#000000" fill-opacity="1"></use><g><use xlink:href="#c1eHoGNfKT" opacity="1" fill-opacity="0" stroke="#000000" stroke-width="1" stroke-opacity="0"></use></g></g><g><use xlink:href="#a7hjhsbSd" opacity="1" fill="#ffb8b8" fill-opacity="1"></use><g><use xlink:href="#a7hjhsbSd" opacity="1" fill-opacity="0" stroke="#000000" stroke-width="1" stroke-opacity="0"></use></g></g><g><use xlink:href="#c5pB1anKJ" opacity="1" fill="#d0cde1" fill-opacity="1"></use><g><use xlink:href="#c5pB1anKJ" opacity="1" fill-opacity="0" stroke="#000000" stroke-width="1" stroke-opacity="0"></use></g></g><g><use xlink:href="#aKeugqan" opacity="1" fill="#575a89" fill-opacity="1"></use><g><use xlink:href="#aKeugqan" opacity="1" fill-opacity="0" stroke="#000000" stroke-width="1" stroke-opacity="0"></use></g></g><g><use xlink:href="#g4IyfKaiB" opacity="1" fill="#575a89" fill-opacity="1"></use><g><use xlink:href="#g4IyfKaiB" opacity="1" fill-opacity="0" stroke="#000000" stroke-width="1" stroke-opacity="0"></use></g></g><g><use xlink:href="#a5F7GF0u2E" opacity="1" fill="#575a89" fill-opacity="1"></use><g><use xlink:href="#a5F7GF0u2E" opacity="1" fill-opacity="0" stroke="#000000" stroke-width="1" stroke-opacity="0"></use></g></g><g><use xlink:href="#ffqWyKOj4" opacity="1" fill="#575a89" fill-opacity="1"></use><g><use xlink:href="#ffqWyKOj4" opacity="1" fill-opacity="0" stroke="#000000" stroke-width="1" stroke-opacity="0"></use></g></g><g><use xlink:href="#c1cNKUetNX" opacity="1" fill="#2f2e41" fill-opacity="1"></use><g><use xlink:href="#c1cNKUetNX" opacity="1" fill-opacity="0" stroke="#000000" stroke-width="1" stroke-opacity="0"></use></g></g><g><use xlink:href="#h15aK76lm9" opacity="1" fill="#000000" fill-opacity="1"></use><g><use xlink:href="#h15aK76lm9" opacity="1" fill-opacity="0" stroke="#000000" stroke-width="1" stroke-opacity="0"></use></g></g><g><use xlink:href="#a3AQXw9msy" opacity="1" fill="#ffb8b8" fill-opacity="1"></use><g><use xlink:href="#a3AQXw9msy" opacity="1" fill-opacity="0" stroke="#000000" stroke-width="1" stroke-opacity="0"></use></g></g><g><use xlink:href="#f7nEUv2la" opacity="1" fill="#ffb8b8" fill-opacity="1"></use><g><use xlink:href="#f7nEUv2la" opacity="1" fill-opacity="0" stroke="#000000" stroke-width="1" stroke-opacity="0"></use></g></g><g><use xlink:href="#h7zZvXGjQM" opacity="1" fill="#2f2e41" fill-opacity="1"></use><g><use xlink:href="#h7zZvXGjQM" opacity="1" fill-opacity="0" stroke="#000000" stroke-width="1" stroke-opacity="0"></use></g></g><g><use xlink:href="#b6649pztc" opacity="1" fill="#2f2e41" fill-opacity="1"></use><g><use xlink:href="#b6649pztc" opacity="1" fill-opacity="0" stroke="#000000" stroke-width="1" stroke-opacity="0"></use></g></g><g><use xlink:href="#b620elqsn" opacity="1" fill="#2f2e41" fill-opacity="1"></use><g><use xlink:href="#b620elqsn" opacity="1" fill-opacity="0" stroke="#000000" stroke-width="1" stroke-opacity="0"></use></g></g><g><use xlink:href="#l2F2zWB1bj" opacity="1" fill="#000000" fill-opacity="1"></use><g><use xlink:href="#l2F2zWB1bj" opacity="1" fill-opacity="0" stroke="#000000" stroke-width="1" stroke-opacity="0"></use></g></g><g><use xlink:href="#a92Jn1cFK" opacity="1" fill="#3f3d56" fill-opacity="1"></use><g><use xlink:href="#a92Jn1cFK" opacity="1" fill-opacity="0" stroke="#000000" stroke-width="1" stroke-opacity="0"></use></g></g><g><use xlink:href="#aV5HP0zUH" opacity="1" fill="#ffb8b8" fill-opacity="1"></use><g><use xlink:href="#aV5HP0zUH" opacity="1" fill-opacity="0" stroke="#000000" stroke-width="1" stroke-opacity="0"></use></g></g><g><use xlink:href="#c1nWrO3xTD" opacity="1" fill="#ffb8b8" fill-opacity="1"></use><g><use xlink:href="#c1nWrO3xTD" opacity="1" fill-opacity="0" stroke="#000000" stroke-width="1" stroke-opacity="0"></use></g></g><g><use xlink:href="#cHeFNibOt" opacity="1" fill="#d0cde1" fill-opacity="1"></use><g><use xlink:href="#cHeFNibOt" opacity="1" fill-opacity="0" stroke="#000000" stroke-width="1" stroke-opacity="0"></use></g></g><g><use xlink:href="#b1vr36F9m9" opacity="1" fill="#2f2e41" fill-opacity="1"></use><g><use xlink:href="#b1vr36F9m9" opacity="1" fill-opacity="0" stroke="#000000" stroke-width="1" stroke-opacity="0"></use></g></g><g><g><use xlink:href="#h2JetFBY98" opacity="1" fill="url(#gradientbYSXzViOq)"></use><g><use xlink:href="#h2JetFBY98" opacity="1" fill-opacity="0" stroke="#000000" stroke-width="1" stroke-opacity="0"></use></g></g><g><use xlink:href="#cjIFe6I95" opacity="1" fill="#fafafa" fill-opacity="1"></use><g><use xlink:href="#cjIFe6I95" opacity="1" fill-opacity="0" stroke="#000000" stroke-width="1" stroke-opacity="0"></use></g></g><g><use xlink:href="#e3AWYbQyCO" opacity="1" fill="#e0e0e0" fill-opacity="1"></use><g><use xlink:href="#e3AWYbQyCO" opacity="1" fill-opacity="0" stroke="#000000" stroke-width="1" stroke-opacity="0"></use></g></g><g><use xlink:href="#b3xWkwaJpP" opacity="1" fill="#e0e0e0" fill-opacity="1"></use><g><use xlink:href="#b3xWkwaJpP" opacity="1" fill-opacity="0" stroke="#000000" stroke-width="1" stroke-opacity="0"></use></g></g><g><use xlink:href="#a2gRinpOb" opacity="1" fill="#e0e0e0" fill-opacity="1"></use><g><use xlink:href="#a2gRinpOb" opacity="1" fill-opacity="0" stroke="#000000" stroke-width="1" stroke-opacity="0"></use></g></g><g><use xlink:href="#c5ZqYYmWBk" opacity="1" fill="#e0e0e0" fill-opacity="1"></use><g><use xlink:href="#c5ZqYYmWBk" opacity="1" fill-opacity="0" stroke="#000000" stroke-width="1" stroke-opacity="0"></use></g></g><g><use xlink:href="#d1JN7wdVco" opacity="1" fill="#e0e0e0" fill-opacity="1"></use><g><use xlink:href="#d1JN7wdVco" opacity="1" fill-opacity="0" stroke="#000000" stroke-width="1" stroke-opacity="0"></use></g></g><g><use xlink:href="#a4JARQUlX" opacity="1" fill="url(#gradienta5fUP2mhU)"></use><g><use xlink:href="#a4JARQUlX" opacity="1" fill-opacity="0" stroke="#000000" stroke-width="1" stroke-opacity="0"></use></g></g><g><use xlink:href="#b1D9LEaWoG" opacity="1" fill="#ffffff" fill-opacity="1"></use><g><use xlink:href="#b1D9LEaWoG" opacity="1" fill-opacity="0" stroke="#000000" stroke-width="1" stroke-opacity="0"></use></g></g><g><use xlink:href="#g19A1CYupA" opacity="1" fill="#e56767" fill-opacity="1"></use><g><use xlink:href="#g19A1CYupA" opacity="1" fill-opacity="0" stroke="#000000" stroke-width="1" stroke-opacity="0"></use></g></g><g><use xlink:href="#a1ncHIwE6v" opacity="1" fill="#e56767" fill-opacity="1"></use><g><use xlink:href="#a1ncHIwE6v" opacity="1" fill-opacity="0" stroke="#000000" stroke-width="1" stroke-opacity="0"></use></g></g><g><use xlink:href="#f1eKYCiCtQ" opacity="1" fill="#e56767" fill-opacity="1"></use><g><use xlink:href="#f1eKYCiCtQ" opacity="1" fill-opacity="0" stroke="#000000" stroke-width="1" stroke-opacity="0"></use></g></g><g><use xlink:href="#a55J8YaMSo" opacity="1" fill="#e56767" fill-opacity="1"></use><g><use xlink:href="#a55J8YaMSo" opacity="1" fill-opacity="0" stroke="#000000" stroke-width="1" stroke-opacity="0"></use></g></g><g><use xlink:href="#b2EVooDXW6" opacity="1" fill="#e56767" fill-opacity="1"></use><g><use xlink:href="#b2EVooDXW6" opacity="1" fill-opacity="0" stroke="#000000" stroke-width="1" stroke-opacity="0"></use></g></g></g></g></g></svg>