<?xml version="1.0" encoding="UTF-8" standalone="no"?>
<!DOCTYPE svg PUBLIC "-//W3C//DTD SVG 1.1//EN" "http://www.w3.org/Graphics/SVG/1.1/DTD/svg11.dtd">
<svg version="1.1" xmlns="http://www.w3.org/2000/svg" xmlns:xlink="http://www.w3.org/1999/xlink" preserveAspectRatio="xMidYMid meet" viewBox="0 0 1130.667 813.333" width="1130.67" height="813.33"><defs><path d="M770.08 51.25C770.08 51.25 770.08 51.25 770.08 51.25C770.08 69.3 770.08 79.33 770.08 81.34C770.08 81.34 770.08 81.34 770.08 81.34C721.61 81.34 694.68 81.34 689.3 81.34C689.3 81.34 689.3 81.34 689.3 81.34C689.3 63.29 689.3 53.26 689.3 51.25C689.3 51.25 689.3 51.25 689.3 51.25C737.77 51.25 764.69 51.25 770.08 51.25Z" id="g1qje1A1kT"></path><path d="M904.34 0C904.34 0 904.34 0 904.34 0C904.34 18.05 904.34 28.08 904.34 30.08C904.34 30.08 904.34 30.08 904.34 30.08C855.87 30.08 828.95 30.08 823.56 30.08C823.56 30.08 823.56 30.08 823.56 30.08C823.56 12.03 823.56 2.01 823.56 0C823.56 0 823.56 0 823.56 0C872.03 0 898.96 0 904.34 0Z" id="c2LtgoJnSA"></path><path d="M909.91 93.04C909.91 93.04 909.91 93.04 909.91 93.04C909.91 111.09 909.91 121.12 909.91 123.12C909.91 123.12 909.91 123.12 909.91 123.12C861.44 123.12 834.52 123.12 829.13 123.12C829.13 123.12 829.13 123.12 829.13 123.12C829.13 105.07 829.13 95.04 829.13 93.04C829.13 93.04 829.13 93.04 829.13 93.04C877.6 93.04 904.53 93.04 909.91 93.04Z" id="b3D0ZdLYNO"></path><path d="M651.41 127.58C651.41 127.58 651.41 127.58 651.41 127.58C651.41 145.63 651.41 155.66 651.41 157.66C651.41 157.66 651.41 157.66 651.41 157.66C602.94 157.66 576.02 157.66 570.63 157.66C570.63 157.66 570.63 157.66 570.63 157.66C570.63 139.61 570.63 129.58 570.63 127.58C570.63 127.58 570.63 127.58 570.63 127.58C619.1 127.58 646.03 127.58 651.41 127.58Z" id="b6RoMcREH"></path><path d="M625.79 251.26C625.79 251.26 625.79 251.26 625.79 251.26C625.79 269.31 625.79 279.34 625.79 281.34C625.79 281.34 625.79 281.34 625.79 281.34C577.32 281.34 550.39 281.34 545.01 281.34C545.01 281.34 545.01 281.34 545.01 281.34C545.01 263.29 545.01 253.26 545.01 251.26C545.01 251.26 545.01 251.26 545.01 251.26C593.47 251.26 620.4 251.26 625.79 251.26Z" id="d4cMH3n0oF"></path><path d="M747.79 248.47C747.79 248.47 747.79 248.47 747.79 248.47C747.79 266.52 747.79 276.55 747.79 278.56C747.79 278.56 747.79 278.56 747.79 278.56C699.32 278.56 672.4 278.56 667.01 278.56C667.01 278.56 667.01 278.56 667.01 278.56C667.01 260.5 667.01 250.48 667.01 248.47C667.01 248.47 667.01 248.47 667.01 248.47C715.48 248.47 742.41 248.47 747.79 248.47Z" id="cjMb8QsPK"></path><path d="M823.56 14.85L770.08 65.6L829.13 108.08" id="c12fFl955b"></path><path d="M689.3 65.6L611.02 127.58" id="a4VTo8zicL"></path><path d="M585.4 251.23L611.02 157.66L707.4 248.47" id="a3lxWIxgFq"></path><path d="M225.22 82.25C225.22 82.25 225.22 82.25 225.22 82.25C225.22 100.3 225.22 110.32 225.22 112.33C225.22 112.33 225.22 112.33 225.22 112.33C176.75 112.33 149.82 112.33 144.44 112.33C144.44 112.33 144.44 112.33 144.44 112.33C144.44 94.28 144.44 84.25 144.44 82.25C144.44 82.25 144.44 82.25 144.44 82.25C192.9 82.25 219.83 82.25 225.22 82.25Z" id="b4SpwJnft3"></path><path d="M359.48 30.99C359.48 30.99 359.48 30.99 359.48 30.99C359.48 49.04 359.48 59.07 359.48 61.08C359.48 61.08 359.48 61.08 359.48 61.08C311.01 61.08 284.08 61.08 278.7 61.08C278.7 61.08 278.7 61.08 278.7 61.08C278.7 43.03 278.7 33 278.7 30.99C278.7 30.99 278.7 30.99 278.7 30.99C327.17 30.99 354.09 30.99 359.48 30.99Z" id="a4RW1pLJ7C"></path><path d="M365.05 124.03C365.05 124.03 365.05 124.03 365.05 124.03C365.05 142.08 365.05 152.11 365.05 154.11C365.05 154.11 365.05 154.11 365.05 154.11C316.58 154.11 289.66 154.11 284.27 154.11C284.27 154.11 284.27 154.11 284.27 154.11C284.27 136.06 284.27 126.04 284.27 124.03C284.27 124.03 284.27 124.03 284.27 124.03C332.74 124.03 359.67 124.03 365.05 124.03Z" id="fPXxIRHp"></path><path d="M106.55 158.57C106.55 158.57 106.55 158.57 106.55 158.57C106.55 176.62 106.55 186.65 106.55 188.65C106.55 188.65 106.55 188.65 106.55 188.65C58.08 188.65 31.16 188.65 25.77 188.65C25.77 188.65 25.77 188.65 25.77 188.65C25.77 170.6 25.77 160.58 25.77 158.57C25.77 158.57 25.77 158.57 25.77 158.57C74.24 158.57 101.17 158.57 106.55 158.57Z" id="a20tyjwwWS"></path><path d="M80.92 282.25C80.92 282.25 80.92 282.25 80.92 282.25C80.92 300.3 80.92 310.33 80.92 312.33C80.92 312.33 80.92 312.33 80.92 312.33C32.46 312.33 5.53 312.33 0.14 312.33C0.14 312.33 0.14 312.33 0.14 312.33C0.14 294.28 0.14 284.25 0.14 282.25C0.14 282.25 0.14 282.25 0.14 282.25C48.61 282.25 75.54 282.25 80.92 282.25Z" id="a1wrlg5cma"></path><path d="M202.93 279.46C202.93 279.46 202.93 279.46 202.93 279.46C202.93 297.51 202.93 307.54 202.93 309.55C202.93 309.55 202.93 309.55 202.93 309.55C154.46 309.55 127.54 309.55 122.15 309.55C122.15 309.55 122.15 309.55 122.15 309.55C122.15 291.5 122.15 281.47 122.15 279.46C122.15 279.46 122.15 279.46 122.15 279.46C170.62 279.46 197.55 279.46 202.93 279.46Z" id="a2huno99d7"></path><path d="M278.7 45.84L225.22 96.59L284.27 139.07" id="b5D2DYKyQb"></path><path d="M144.44 96.59L66.16 158.57" id="bHFK3XKUm"></path><path d="M40.53 282.23L66.16 188.65L162.54 279.46" id="b3jaEVMn7M"></path><path d="M365.05 139.07L456.66 139.07" id="bcpJFyVw4"></path><path d="M510.51 123.67C510.51 123.67 510.51 123.67 510.51 123.67C510.51 141.67 510.51 151.67 510.51 153.67C510.51 153.67 510.51 153.67 510.51 153.67C453.53 153.67 421.87 153.67 415.54 153.67C415.54 153.67 415.54 153.67 415.54 153.67C415.54 135.67 415.54 125.67 415.54 123.67C415.54 123.67 415.54 123.67 415.54 123.67C472.52 123.67 504.18 123.67 510.51 123.67Z" id="d8LmKeiY7R"></path><path d="M510.64 138.67L570.63 138.67" id="cHJ6fxmzE"></path><path d="M415.08 138.67L359.48 45.84" id="c461HortNx"></path><path d="M1130.86 714.02C1130.86 768.14 933.91 812 690.97 812C448.02 812 251.08 768.14 251.08 714.02C251.08 659.91 448.02 616.05 690.97 616.05C933.91 616.05 1130.86 659.91 1130.86 714.02Z" id="a96W2kKyX"></path><path d="M852.01 606.43L842.72 606.43L841.7 604.84L838.74 600.24L875.89 399.47L881.52 397.11L894.9 391.51L894.9 391.51L852.01 606.43Z" id="d1QUyogaLu"></path><path d="M841.7 604.84L838.74 600.24L875.89 399.47L881.52 397.11L881.52 397.11L841.7 604.84Z" id="gHQSMDDse"></path><path d="M948.44 687.81L945.76 688.68L942.22 680.72L881.52 403.86L887.83 402.44L901.09 399.47L959.46 684.26L959.46 684.26L948.44 687.81Z" id="hcRjlMfSy"></path><path d="M945.76 688.68L942.22 680.72L881.52 403.86L887.83 402.44L948.44 687.81L948.44 687.81L945.76 688.68Z" id="b15yZR8shH"></path><path d="M423.94 670.11L412.79 672.58L412 672.76L408.9 667.01L415.1 394.16L421.05 393.32L433.67 391.51L433.67 391.51L423.94 670.11Z" id="amk81v3UI"></path><path d="M412.79 672.58L412 672.76L408.9 667.01L415.1 394.16L421.05 393.32L421.05 393.32L412.79 672.58Z" id="aHaEeQdpY"></path><path d="M480.07 770.71L478.78 770.93L475.24 763.42L419.08 399.47L420.69 398.98L429.25 396.38L491.6 768.72L491.6 768.72L480.07 770.71Z" id="b63aT7ERc"></path><path d="M478.78 770.93L475.24 763.42L419.08 399.47L420.69 398.98L480.07 770.71L480.07 770.71L478.78 770.93Z" id="b30a2vOtnH"></path><path d="M735.7 368.96C761.47 401.88 775.78 420.17 778.64 423.83C781.64 427.65 786.41 429.64 791.23 429.07C808.86 427.01 949.87 410.49 967.5 408.43C974.52 407.61 979.81 401.66 979.81 394.6C979.81 391.89 979.81 378.33 979.81 353.92L735.7 368.96Z" id="b1LCjiX1J"></path><path d="M892.25 377.8C892.25 388.14 892.25 393.89 892.25 395.03C892.25 397.48 890.26 399.47 887.81 399.47C887.5 399.47 885.05 399.47 884.74 399.47C882.29 399.47 880.31 397.48 880.31 395.03C880.31 393.89 880.31 388.14 880.31 377.8L892.25 377.8Z" id="a5FCuzqSus"></path><path d="M419.08 403.89C444.84 436.81 459.15 455.1 462.02 458.76C465.01 462.59 469.78 464.57 474.6 464.01C492.23 461.95 633.25 445.43 650.87 443.36C657.89 442.54 663.18 436.6 663.18 429.54C663.18 426.82 663.18 413.26 663.18 388.86L419.08 403.89Z" id="b2EXogD9nd"></path><path d="M575.62 412.74C575.62 423.08 575.62 428.82 575.62 429.97C575.62 432.42 573.63 434.41 571.18 434.41C570.88 434.41 568.42 434.41 568.12 434.41C565.67 434.41 563.68 432.42 563.68 429.97C563.68 428.82 563.68 423.08 563.68 412.74L575.62 412.74Z" id="cjupr5MxB"></path><path d="M992.74 370.61C996.97 370.11 1000 366.29 999.5 362.06C999.2 359.48 997.63 357.23 995.31 356.06C985.93 351.34 910.9 313.61 901.52 308.89C883.05 299.6 862.3 295.78 841.73 297.88C795.15 302.63 422.49 340.63 375.91 345.38C371.01 345.89 367.46 350.27 367.97 355.17C368.18 357.16 369.05 359.03 370.45 360.47C375.88 366.03 419.27 410.56 424.7 416.12C436.07 427.79 452.22 433.54 468.41 431.68C573.27 419.47 940.3 376.71 992.74 370.61Z" id="b2uKHtupFP"></path><path d="M1050.42 362.33C1047.06 360.47 1045.19 359.44 1044.81 359.23C1044.81 359.23 1038.76 363.69 1033.82 382.46C1033.82 382.46 1043.04 382.67 1043.04 382.67C1043.46 381.81 1045.52 377.54 1049.23 369.84L1050.42 362.33Z" id="c1EIYecNf9"></path><path d="M982.02 568.84C980.72 572.52 974.44 575.88 967.48 578.46C961.31 580.76 954.92 582.42 948.41 583.43C940.89 584.32 844.49 569.28 797.61 559.11C766.03 552.26 761.95 544.4 762.65 540.01C762.88 538.7 763.5 537.49 764.45 536.56C764.45 536.56 810.88 505.16 827.24 490.13C827.24 490.13 875.89 487.03 911.26 493.22C946.64 499.41 990.42 534.35 990.42 534.35C988.74 541.25 984.67 561.32 982.02 568.84Z" id="a2v4G2byds"></path><path d="M993.51 402.57C993.51 402.57 953.86 424.93 959.02 517.04C959.26 521.18 960.52 525.2 962.69 528.74C970.22 541.12 986.35 572.47 959.46 576.36C959.46 577.07 959.46 582.73 959.46 583.43C959.46 583.43 1008.11 559.11 1013.41 538.33C1013.41 538.33 1036.41 402.12 1045.25 391.51C1054.1 380.9 1059.85 364.09 1044.81 359.23C1034.55 367.9 1066.48 373.38 993.51 402.57Z" id="gAFGfq4UZ"></path><path d="M948.41 583.43C940.89 584.32 844.49 569.28 797.61 559.11C766.03 552.26 761.95 544.4 762.65 540.01C783.41 547.1 850.81 569.63 875 571.49C903.75 573.7 958.66 579.85 962.82 575.67C964.42 574.06 966.06 575.76 967.48 578.46C961.31 580.76 954.92 582.42 948.41 583.43Z" id="d3XYulmH6W"></path><path d="M714.92 762.53C740.13 647.38 754.13 583.4 756.93 570.61C756.93 570.61 764.45 550.27 781.69 551.15C783.29 551.95 796.02 558.32 797.61 559.11C797.61 559.11 771.08 552.92 765.33 573.26C759.58 593.6 722.88 762.53 722.88 762.53C721.82 762.53 719.16 762.53 714.92 762.53Z" id="a6zKbcQrT"></path><path d="M832.55 557.78L840.07 557.78L822.82 674.97L815.74 674.97L815.74 674.97L832.55 557.78Z" id="h3y6qN64G"></path><path d="M976.71 789.51C967.16 679.66 961.85 618.63 960.79 606.43C960.79 606.43 960.79 590.95 968.75 583.43C968.75 583.43 1002.41 554.47 1002.41 554.47C1002.41 554.47 1008.99 552.92 1014.3 567.96C1014.3 567.96 1056.31 733.34 1056.31 733.34C1055.84 733.55 1053.48 734.58 1049.23 736.44L1003.69 563.09C984.85 580.87 974.38 590.74 972.29 592.72C972.29 592.72 966.1 603.77 969.19 613.95C969.19 613.95 983.79 789.51 983.79 789.51C982.84 789.51 980.48 789.51 976.71 789.51Z" id="a6sTe6mLOf"></path><path d="M967.42 590.51L976.27 582.11L953.27 579.01L927.63 579.01L927.63 579.01L967.42 590.51Z" id="b4TLJG51cT"></path><path d="M580.26 353.04L721.33 339.33C717.96 282.55 716.09 251.01 715.72 244.7C715.41 239.46 710.9 235.46 705.65 235.77C705.58 235.77 705.5 235.78 705.42 235.78C693.13 236.82 594.8 245.09 582.51 246.12C577.34 246.56 573.47 251.06 573.81 256.24C574.67 269.15 576.82 301.41 580.26 353.04Z" id="aaHLmy5qR"></path><path d="M628.02 382.53L622.72 383.11L581.59 356.58L581.59 350.83L721.33 338.24L768.65 367.19L768.65 367.19L628.02 382.53Z" id="a19TjgFF7W"></path><path d="M622.72 383.11L581.59 356.58L581.59 351.43L628.02 382.53L628.02 382.53L622.72 383.11Z" id="b1WRsxx6vh"></path><path d="M588.22 341.54L712.04 330.04L707.62 246.02L583.36 255.31L583.36 255.31L588.22 341.54Z" id="a1CP3iOgwD"></path><path d="M672.24 375.59L717.79 371.17L702.32 361.44L657.21 365.42L657.21 365.42L672.24 375.59Z" id="h1hyoMNfZ"></path><path d="M614.76 367.19L736.37 355.69L714.7 341.54L595.74 353.04L595.74 353.04L614.76 367.19Z" id="bit38VCRf"></path><path d="M901.31 222.36C901.31 222.36 901.31 222.36 901.31 222.36C901.31 276.23 901.31 306.15 901.31 312.13C901.31 312.13 901.31 312.13 901.31 312.13C847.45 312.13 817.53 312.13 811.54 312.13C811.54 312.13 811.54 312.13 811.54 312.13C811.54 258.27 811.54 228.35 811.54 222.36C811.54 222.36 811.54 222.36 811.54 222.36C865.4 222.36 895.33 222.36 901.31 222.36Z" id="d5ZJedXwFo"></path><path d="M901.31 222.36C901.31 222.36 901.31 222.36 901.31 222.36C901.31 276.23 901.31 306.15 901.31 312.13C901.31 312.13 901.31 312.13 901.31 312.13C847.45 312.13 817.53 312.13 811.54 312.13C811.54 312.13 811.54 312.13 811.54 312.13C811.54 258.27 811.54 228.35 811.54 222.36C811.54 222.36 811.54 222.36 811.54 222.36C865.4 222.36 895.33 222.36 901.31 222.36Z" id="ehVbQyKnQ"></path><path d="M842.46 304.54C842.46 304.54 887.84 304.54 887.84 304.54C889.47 303.22 902.56 292.66 904.19 291.34C904.19 291.34 867.26 280.79 872.53 256.52C877.81 232.25 842.46 263.91 842.46 263.91C842.46 272.03 855.12 298.2 842.46 304.54Z" id="bUt0pFk1v"></path><path d="M842.46 304.54C842.46 304.54 887.84 304.54 887.84 304.54C889.47 303.22 902.56 292.66 904.19 291.34C904.19 291.34 867.26 280.79 872.53 256.52C877.81 232.25 842.46 263.91 842.46 263.91C842.46 272.03 855.12 298.2 842.46 304.54Z" id="a3MLWlJcI1"></path><path d="M778.09 693.41C778.09 693.41 774.39 723.49 758.56 729.82C758.56 729.82 738.51 747.76 752.23 747.23C752.23 747.23 783.89 743.01 786.53 738.26C786.53 738.26 795.5 710.83 804.47 707.66C813.44 704.49 830.32 692.36 818.19 677.58C806.05 662.81 775.47 608.39 777.83 602.89C780.2 597.38 738.51 607.93 738.51 607.93C746.43 625.03 786 674.95 778.09 693.41Z" id="cqTSLvHMu"></path><path d="M837.71 475.49C837.71 475.49 739.57 481.83 714.24 505.57C714.24 505.57 736.4 617.96 741.68 619.02C741.68 619.02 788.11 615.85 786.53 604.24C786.53 604.24 756.98 545.14 756.98 545.14C756.98 545.14 793.39 531.95 813.44 528.79C813.44 528.79 855.65 510.85 855.65 510.85C852.06 503.78 841.3 482.56 837.71 475.49Z" id="cldrdrPHF"></path><path d="M792.86 460.72C792.86 460.72 794.44 519.29 809.22 521.4C809.22 521.4 809.22 476.55 809.22 476.55C809.18 475.35 809.01 469.37 808.69 458.61C800.25 459.74 794.97 460.44 792.86 460.72Z" id="bD9JWR2Mc"></path><path d="M837.71 307.17C837.71 307.17 810.27 299.26 805 320.37C805 320.37 798.14 414.29 798.14 414.29C797.19 420.09 789.59 466.52 788.64 472.33C788.64 472.33 806.05 467.05 809.74 469.69C811.22 467.83 818.61 458.5 831.91 441.72C835 369.96 836.94 325.11 837.71 307.17Z" id="br3aBFCOl"></path><path d="M837.71 307.17C837.71 307.17 810.27 299.26 805 320.37C805 320.37 798.14 414.29 798.14 414.29C797.19 420.09 789.59 466.52 788.64 472.33C788.64 472.33 806.05 467.05 809.74 469.69C811.22 467.83 818.61 458.5 831.91 441.72C835 369.96 836.94 325.11 837.71 307.17Z" id="bTDRPwA1s"></path><path d="M904.72 654.9C904.72 654.9 926.36 647.51 931.63 669.14C931.63 669.14 930.58 684.97 936.91 697.63C936.91 697.63 944.3 732.46 932.16 737.74C932.16 737.74 908.94 743.54 908.42 737.74C908.42 737.74 918.97 731.93 906.3 711.35C906.3 711.35 866.73 653.31 855.65 649.62C844.57 645.93 875.2 619.17 875.2 619.17C881.1 626.32 893.64 655.42 904.72 654.9Z" id="e105dUc3Ce"></path><path d="M923.19 453.86C923.19 453.86 961.18 517.18 936.38 535.65C936.38 535.65 837.71 589.47 837.71 589.47C837.71 589.47 877.28 616.38 879.39 625.35C879.39 625.35 860.4 658.59 853.01 659.12C853.01 659.12 823.99 634.84 800.77 628.51C800.77 628.51 763.31 576.8 788.64 559.92C788.64 559.92 837.71 515.07 837.71 515.07C837.22 512.36 834.76 498.82 830.33 474.44C879.85 463.47 910.81 456.61 923.19 453.86Z" id="am58malV7"></path><path d="M844.83 283.69C822.39 283.69 804.2 265.5 804.2 243.06C804.2 220.63 822.39 202.44 844.83 202.44C867.27 202.44 890.26 220.27 890.26 242.71C890.26 265.14 867.27 283.69 844.83 283.69Z" id="dEd5FOBLW"></path><path d="M891.53 283.43C891.53 283.43 912.64 288.18 917.39 292.4C917.39 292.4 924.77 296.09 927.94 304.54C927.94 304.54 912.11 391.6 912.11 391.6C912.11 391.6 922.66 452.28 928.47 458.08C934.27 463.89 881.5 472.33 881.5 472.33C881.5 472.33 846.68 478.66 840.88 481.3C835.07 483.94 824.52 487.63 826.63 481.3C828.74 474.97 837.71 470.22 822.41 462.3C822.41 462.3 827.68 436.45 822.41 424.84C817.13 413.23 792.86 371.02 812.38 340.42C831.91 309.81 840.88 298.73 840.88 298.73C840.88 298.73 847.74 304.54 855.12 301.37C862.4 297.78 891.53 285.54 891.53 283.43Z" id="b5NuRhbFju"></path><path d="M866.73 445.42C866.73 445.42 825.57 463.67 813.17 465.36C800.77 467.05 763.31 476.55 783.89 484.99C804.47 493.43 835.6 480.77 835.6 480.77C838.52 479.54 853.12 473.38 879.39 462.3C872.64 453.3 868.42 447.67 866.73 445.42Z" id="bRE8r6Bas"></path><path d="M930.46 318.25C930.46 318.25 949.46 425.9 930.46 438.03C930.46 438.03 867.67 469.69 867.67 469.69C867.67 469.69 841.82 452.28 853.95 445.95C853.95 445.95 895.11 421.67 899.33 415.34C899.33 415.34 907.82 338.33 900.43 326.73C893.04 315.12 911.04 299.75 911.04 299.75C914.93 303.45 926.24 292.4 930.46 318.25Z" id="b652WK074u"></path><path d="M935.33 318.25C935.33 318.25 954.32 425.9 935.33 438.03C935.33 438.03 872.53 469.69 872.53 469.69C872.53 469.69 846.68 452.28 858.82 445.95C858.82 445.95 899.97 421.67 904.19 415.34C908.41 409.01 901.03 343.05 893.64 331.45C886.25 319.84 910 293.46 910 293.46C915.06 298.42 931.1 292.4 935.33 318.25Z" id="a56v8BbSF1"></path><path d="M818.14 183.59C816.55 186.36 816.03 189.61 814.8 192.57C811.41 200.72 803.18 205.59 797.23 212.11C789.48 220.62 785.64 233.43 790.2 243.99C791.97 248.08 794.85 251.58 797.03 255.47C803.11 266.31 803.43 279.33 803.6 291.75C803.64 294.2 803.91 313.75 803.94 316.19C804 319.92 804.04 323.73 802.91 327.28C801.79 330.84 799.28 334.18 795.72 335.3C803.8 338.1 812.75 335.04 817.43 327.89C818.41 334.14 816.23 340.47 811.6 344.78C821.28 342.51 829.39 335.47 834.5 326.95C839.61 318.42 841.98 308.51 843.04 298.63C843.61 293.4 843.8 288 842.15 283.01C840.99 279.49 838.96 276.34 837.04 273.18C832.07 265.03 827.6 256.36 826 246.95C824.4 237.54 826.01 227.21 832.12 219.88C836.87 214.14 843.98 210.88 851.43 211.03C858.9 211.32 865.69 215.47 869.35 222C870.76 224.66 872.77 228.26 875.63 227.33C876.16 227.1 876.68 226.85 877.18 226.56C880.37 225.11 883.99 227.98 885.4 231.19C889.84 241.31 881.66 252.36 880.82 263.38C880.03 273.64 885.75 283.3 892.58 290.99C904.38 304.21 919.8 313.68 936.92 318.23C934.41 317.6 932.17 316.2 930.49 314.24C937.45 314.51 944.42 313.93 951.24 312.5C943.82 306.9 936.34 301.26 930.14 294.33C923.94 287.4 919.03 279.02 917.7 269.82C915.9 257.47 920.5 244.1 915.24 232.79C910.44 222.44 898.52 216.66 894.16 206.12C889.74 195.41 886.87 186.11 875.17 181.45C862.39 176.36 848.63 172.79 834.83 174.67C828.35 175.55 821.4 177.92 818.14 183.59Z" id="c9cDBQvcj"></path></defs><g><g><g><use xlink:href="#g1qje1A1kT" opacity="1" fill="#ff7373" fill-opacity="1"></use><g><use xlink:href="#g1qje1A1kT" opacity="1" fill-opacity="0" stroke="#000000" stroke-width="1" stroke-opacity="0"></use></g></g><g><use xlink:href="#c2LtgoJnSA" opacity="1" fill="#ff5656" fill-opacity="1"></use><g><use xlink:href="#c2LtgoJnSA" opacity="1" fill-opacity="0" stroke="#000000" stroke-width="1" stroke-opacity="0"></use></g></g><g><use xlink:href="#b3D0ZdLYNO" opacity="1" fill="#ff5656" fill-opacity="1"></use><g><use xlink:href="#b3D0ZdLYNO" opacity="1" fill-opacity="0" stroke="#000000" stroke-width="1" stroke-opacity="0"></use></g></g><g><use xlink:href="#b6RoMcREH" opacity="1" fill="#ff7373" fill-opacity="0.8"></use><g><use xlink:href="#b6RoMcREH" opacity="1" fill-opacity="0" stroke="#000000" stroke-width="1" stroke-opacity="0"></use></g></g><g><use xlink:href="#d4cMH3n0oF" opacity="1" fill="#ff7373" fill-opacity="1"></use><g><use xlink:href="#d4cMH3n0oF" opacity="1" fill-opacity="0" stroke="#000000" stroke-width="1" stroke-opacity="0"></use></g></g><g><use xlink:href="#cjMb8QsPK" opacity="1" fill="#ff7373" fill-opacity="1"></use><g><use xlink:href="#cjMb8QsPK" opacity="1" fill-opacity="0" stroke="#000000" stroke-width="1" stroke-opacity="0"></use></g></g><g><use xlink:href="#c12fFl955b" opacity="1" fill="#000000" fill-opacity="0"></use><g><use xlink:href="#c12fFl955b" opacity="1" fill-opacity="0" stroke="#3f3d56" stroke-width="1" stroke-opacity="1"></use></g></g><g><use xlink:href="#a4VTo8zicL" opacity="1" fill="#000000" fill-opacity="0"></use><g><use xlink:href="#a4VTo8zicL" opacity="1" fill-opacity="0" stroke="#3f3d56" stroke-width="1" stroke-opacity="1"></use></g></g><g><use xlink:href="#a3lxWIxgFq" opacity="1" fill="#000000" fill-opacity="0"></use><g><use xlink:href="#a3lxWIxgFq" opacity="1" fill-opacity="0" stroke="#3f3d56" stroke-width="1" stroke-opacity="1"></use></g></g><g><use xlink:href="#b4SpwJnft3" opacity="1" fill="#ff7373" fill-opacity="1"></use><g><use xlink:href="#b4SpwJnft3" opacity="1" fill-opacity="0" stroke="#000000" stroke-width="1" stroke-opacity="0"></use></g></g><g><use xlink:href="#a4RW1pLJ7C" opacity="1" fill="#ff5656" fill-opacity="0.87"></use><g><use xlink:href="#a4RW1pLJ7C" opacity="1" fill-opacity="0" stroke="#000000" stroke-width="1" stroke-opacity="0"></use></g></g><g><use xlink:href="#fPXxIRHp" opacity="1" fill="#ff7373" fill-opacity="0.72"></use><g><use xlink:href="#fPXxIRHp" opacity="1" fill-opacity="0" stroke="#000000" stroke-width="1" stroke-opacity="0"></use></g></g><g><use xlink:href="#a20tyjwwWS" opacity="1" fill="#ff7373" fill-opacity="1"></use><g><use xlink:href="#a20tyjwwWS" opacity="1" fill-opacity="0" stroke="#000000" stroke-width="1" stroke-opacity="0"></use></g></g><g><use xlink:href="#a1wrlg5cma" opacity="1" fill="#ff5656" fill-opacity="1"></use><g><use xlink:href="#a1wrlg5cma" opacity="1" fill-opacity="0" stroke="#000000" stroke-width="1" stroke-opacity="0"></use></g></g><g><use xlink:href="#a2huno99d7" opacity="1" fill="#ff5656" fill-opacity="1"></use><g><use xlink:href="#a2huno99d7" opacity="1" fill-opacity="0" stroke="#000000" stroke-width="1" stroke-opacity="0"></use></g></g><g><use xlink:href="#b5D2DYKyQb" opacity="1" fill="#000000" fill-opacity="0"></use><g><use xlink:href="#b5D2DYKyQb" opacity="1" fill-opacity="0" stroke="#3f3d56" stroke-width="1" stroke-opacity="1"></use></g></g><g><use xlink:href="#bHFK3XKUm" opacity="1" fill="#000000" fill-opacity="0"></use><g><use xlink:href="#bHFK3XKUm" opacity="1" fill-opacity="0" stroke="#3f3d56" stroke-width="1" stroke-opacity="1"></use></g></g><g><use xlink:href="#b3jaEVMn7M" opacity="1" fill="#000000" fill-opacity="0"></use><g><use xlink:href="#b3jaEVMn7M" opacity="1" fill-opacity="0" stroke="#3f3d56" stroke-width="1" stroke-opacity="1"></use></g></g><g><use xlink:href="#bcpJFyVw4" opacity="1" fill="#000000" fill-opacity="0"></use><g><use xlink:href="#bcpJFyVw4" opacity="1" fill-opacity="0" stroke="#3f3d56" stroke-width="1" stroke-opacity="1"></use></g></g><g><use xlink:href="#d8LmKeiY7R" opacity="1" fill="#ff7373" fill-opacity="1"></use><g><use xlink:href="#d8LmKeiY7R" opacity="1" fill-opacity="0" stroke="#000000" stroke-width="1" stroke-opacity="0"></use></g></g><g><use xlink:href="#cHJ6fxmzE" opacity="1" fill="#000000" fill-opacity="0"></use><g><use xlink:href="#cHJ6fxmzE" opacity="1" fill-opacity="0" stroke="#3f3d56" stroke-width="1" stroke-opacity="1"></use></g></g><g><use xlink:href="#c461HortNx" opacity="1" fill="#000000" fill-opacity="0"></use><g><use xlink:href="#c461HortNx" opacity="1" fill-opacity="0" stroke="#3f3d56" stroke-width="1" stroke-opacity="1"></use></g></g><g><use xlink:href="#a96W2kKyX" opacity="1" fill="#f2f2f2" fill-opacity="1"></use><g><use xlink:href="#a96W2kKyX" opacity="1" fill-opacity="0" stroke="#000000" stroke-width="1" stroke-opacity="0"></use></g></g><g><use xlink:href="#d1QUyogaLu" opacity="1" fill="#47465a" fill-opacity="1"></use><g><use xlink:href="#d1QUyogaLu" opacity="1" fill-opacity="0" stroke="#000000" stroke-width="1" stroke-opacity="0"></use></g></g><g><use xlink:href="#gHQSMDDse" opacity="1" fill="#000000" fill-opacity="1"></use><g><use xlink:href="#gHQSMDDse" opacity="1" fill-opacity="0" stroke="#000000" stroke-width="1" stroke-opacity="0"></use></g></g><g><use xlink:href="#hcRjlMfSy" opacity="1" fill="#47465a" fill-opacity="1"></use><g><use xlink:href="#hcRjlMfSy" opacity="1" fill-opacity="0" stroke="#000000" stroke-width="1" stroke-opacity="0"></use></g></g><g><use xlink:href="#b15yZR8shH" opacity="1" fill="#000000" fill-opacity="1"></use><g><use xlink:href="#b15yZR8shH" opacity="1" fill-opacity="0" stroke="#000000" stroke-width="1" stroke-opacity="0"></use></g></g><g><use xlink:href="#amk81v3UI" opacity="1" fill="#47465a" fill-opacity="1"></use><g><use xlink:href="#amk81v3UI" opacity="1" fill-opacity="0" stroke="#000000" stroke-width="1" stroke-opacity="0"></use></g></g><g><use xlink:href="#aHaEeQdpY" opacity="1" fill="#000000" fill-opacity="1"></use><g><use xlink:href="#aHaEeQdpY" opacity="1" fill-opacity="0" stroke="#000000" stroke-width="1" stroke-opacity="0"></use></g></g><g><use xlink:href="#b63aT7ERc" opacity="1" fill="#47465a" fill-opacity="1"></use><g><use xlink:href="#b63aT7ERc" opacity="1" fill-opacity="0" stroke="#000000" stroke-width="1" stroke-opacity="0"></use></g></g><g><use xlink:href="#b30a2vOtnH" opacity="1" fill="#000000" fill-opacity="1"></use><g><use xlink:href="#b30a2vOtnH" opacity="1" fill-opacity="0" stroke="#000000" stroke-width="1" stroke-opacity="0"></use></g></g><g><use xlink:href="#b1LCjiX1J" opacity="1" fill="#7a799c" fill-opacity="1"></use><g><use xlink:href="#b1LCjiX1J" opacity="1" fill-opacity="0" stroke="#000000" stroke-width="1" stroke-opacity="0"></use></g></g><g><use xlink:href="#a5FCuzqSus" opacity="1" fill="#47465a" fill-opacity="1"></use><g><use xlink:href="#a5FCuzqSus" opacity="1" fill-opacity="0" stroke="#000000" stroke-width="1" stroke-opacity="0"></use></g></g><g><use xlink:href="#b2EXogD9nd" opacity="1" fill="#7a799c" fill-opacity="1"></use><g><use xlink:href="#b2EXogD9nd" opacity="1" fill-opacity="0" stroke="#000000" stroke-width="1" stroke-opacity="0"></use></g></g><g><use xlink:href="#cjupr5MxB" opacity="1" fill="#47465a" fill-opacity="1"></use><g><use xlink:href="#cjupr5MxB" opacity="1" fill-opacity="0" stroke="#000000" stroke-width="1" stroke-opacity="0"></use></g></g><g><use xlink:href="#b2uKHtupFP" opacity="1" fill="#47465a" fill-opacity="1"></use><g><use xlink:href="#b2uKHtupFP" opacity="1" fill-opacity="0" stroke="#000000" stroke-width="1" stroke-opacity="0"></use></g></g><g><use xlink:href="#c1EIYecNf9" opacity="1" fill="#47465a" fill-opacity="1"></use><g><use xlink:href="#c1EIYecNf9" opacity="1" fill-opacity="0" stroke="#000000" stroke-width="1" stroke-opacity="0"></use></g></g><g><use xlink:href="#a2v4G2byds" opacity="1" fill="#47465a" fill-opacity="1"></use><g><use xlink:href="#a2v4G2byds" opacity="1" fill-opacity="0" stroke="#000000" stroke-width="1" stroke-opacity="0"></use></g></g><g><use xlink:href="#gAFGfq4UZ" opacity="1" fill="#47465a" fill-opacity="1"></use><g><use xlink:href="#gAFGfq4UZ" opacity="1" fill-opacity="0" stroke="#000000" stroke-width="1" stroke-opacity="0"></use></g></g><g><use xlink:href="#d3XYulmH6W" opacity="1" fill="#000000" fill-opacity="1"></use><g><use xlink:href="#d3XYulmH6W" opacity="1" fill-opacity="0" stroke="#000000" stroke-width="1" stroke-opacity="0"></use></g></g><g><use xlink:href="#a6zKbcQrT" opacity="1" fill="#47465a" fill-opacity="1"></use><g><use xlink:href="#a6zKbcQrT" opacity="1" fill-opacity="0" stroke="#000000" stroke-width="1" stroke-opacity="0"></use></g></g><g><use xlink:href="#h3y6qN64G" opacity="1" fill="#47465a" fill-opacity="1"></use><g><use xlink:href="#h3y6qN64G" opacity="1" fill-opacity="0" stroke="#000000" stroke-width="1" stroke-opacity="0"></use></g></g><g><use xlink:href="#a6sTe6mLOf" opacity="1" fill="#47465a" fill-opacity="1"></use><g><use xlink:href="#a6sTe6mLOf" opacity="1" fill-opacity="0" stroke="#000000" stroke-width="1" stroke-opacity="0"></use></g></g><g><use xlink:href="#b4TLJG51cT" opacity="1" fill="#47465a" fill-opacity="1"></use><g><use xlink:href="#b4TLJG51cT" opacity="1" fill-opacity="0" stroke="#000000" stroke-width="1" stroke-opacity="0"></use></g></g><g><use xlink:href="#aaHLmy5qR" opacity="1" fill="#7a799c" fill-opacity="1"></use><g><use xlink:href="#aaHLmy5qR" opacity="1" fill-opacity="0" stroke="#000000" stroke-width="1" stroke-opacity="0"></use></g></g><g><use xlink:href="#a19TjgFF7W" opacity="1" fill="#7a799c" fill-opacity="1"></use><g><use xlink:href="#a19TjgFF7W" opacity="1" fill-opacity="0" stroke="#000000" stroke-width="1" stroke-opacity="0"></use></g></g><g><use xlink:href="#b1WRsxx6vh" opacity="1" fill="#000000" fill-opacity="1"></use><g><use xlink:href="#b1WRsxx6vh" opacity="1" fill-opacity="0" stroke="#000000" stroke-width="1" stroke-opacity="0"></use></g></g><g><use xlink:href="#a1CP3iOgwD" opacity="1" fill="#9493b6" fill-opacity="1"></use><g><use xlink:href="#a1CP3iOgwD" opacity="1" fill-opacity="0" stroke="#000000" stroke-width="1" stroke-opacity="0"></use></g></g><g><use xlink:href="#h1hyoMNfZ" opacity="1" fill="#000000" fill-opacity="1"></use><g><use xlink:href="#h1hyoMNfZ" opacity="1" fill-opacity="0" stroke="#000000" stroke-width="1" stroke-opacity="0"></use></g></g><g><use xlink:href="#bit38VCRf" opacity="1" fill="#9493b6" fill-opacity="1"></use><g><use xlink:href="#bit38VCRf" opacity="1" fill-opacity="0" stroke="#000000" stroke-width="1" stroke-opacity="0"></use></g></g><g><use xlink:href="#d5ZJedXwFo" opacity="1" fill="#ff6584" fill-opacity="1"></use><g><use xlink:href="#d5ZJedXwFo" opacity="1" fill-opacity="0" stroke="#000000" stroke-width="1" stroke-opacity="0"></use></g></g><g><use xlink:href="#ehVbQyKnQ" opacity="1" fill="#000000" fill-opacity="1"></use><g><use xlink:href="#ehVbQyKnQ" opacity="1" fill-opacity="0" stroke="#000000" stroke-width="1" stroke-opacity="0"></use></g></g><g><use xlink:href="#bUt0pFk1v" opacity="1" fill="#fbbebe" fill-opacity="1"></use><g><use xlink:href="#bUt0pFk1v" opacity="1" fill-opacity="0" stroke="#000000" stroke-width="1" stroke-opacity="0"></use></g></g><g><use xlink:href="#a3MLWlJcI1" opacity="1" fill="#000000" fill-opacity="1"></use><g><use xlink:href="#a3MLWlJcI1" opacity="1" fill-opacity="0" stroke="#000000" stroke-width="1" stroke-opacity="0"></use></g></g><g><use xlink:href="#cqTSLvHMu" opacity="1" fill="#fbbebe" fill-opacity="1"></use><g><use xlink:href="#cqTSLvHMu" opacity="1" fill-opacity="0" stroke="#000000" stroke-width="1" stroke-opacity="0"></use></g></g><g><use xlink:href="#cldrdrPHF" opacity="1" fill="#9493b6" fill-opacity="1"></use><g><use xlink:href="#cldrdrPHF" opacity="1" fill-opacity="0" stroke="#000000" stroke-width="1" stroke-opacity="0"></use></g></g><g><use xlink:href="#bD9JWR2Mc" opacity="1" fill="#fbbebe" fill-opacity="1"></use><g><use xlink:href="#bD9JWR2Mc" opacity="1" fill-opacity="0" stroke="#000000" stroke-width="1" stroke-opacity="0"></use></g></g><g><use xlink:href="#br3aBFCOl" opacity="1" fill="#ffc107" fill-opacity="1"></use><g><use xlink:href="#br3aBFCOl" opacity="1" fill-opacity="0" stroke="#000000" stroke-width="1" stroke-opacity="0"></use></g></g><g><use xlink:href="#bTDRPwA1s" opacity="1" fill="#000000" fill-opacity="1"></use><g><use xlink:href="#bTDRPwA1s" opacity="1" fill-opacity="0" stroke="#000000" stroke-width="1" stroke-opacity="0"></use></g></g><g><use xlink:href="#e105dUc3Ce" opacity="1" fill="#fbbebe" fill-opacity="1"></use><g><use xlink:href="#e105dUc3Ce" opacity="1" fill-opacity="0" stroke="#000000" stroke-width="1" stroke-opacity="0"></use></g></g><g><use xlink:href="#am58malV7" opacity="1" fill="#9493b6" fill-opacity="1"></use><g><use xlink:href="#am58malV7" opacity="1" fill-opacity="0" stroke="#000000" stroke-width="1" stroke-opacity="0"></use></g></g><g><use xlink:href="#dEd5FOBLW" opacity="1" fill="#fbbebe" fill-opacity="1"></use><g><use xlink:href="#dEd5FOBLW" opacity="1" fill-opacity="0" stroke="#000000" stroke-width="1" stroke-opacity="0"></use></g></g><g><use xlink:href="#b5NuRhbFju" opacity="1" fill="#ff7373" fill-opacity="1"></use><g><use xlink:href="#b5NuRhbFju" opacity="1" fill-opacity="0" stroke="#000000" stroke-width="1" stroke-opacity="0"></use></g></g><g><use xlink:href="#bRE8r6Bas" opacity="1" fill="#fbbebe" fill-opacity="1"></use><g><use xlink:href="#bRE8r6Bas" opacity="1" fill-opacity="0" stroke="#000000" stroke-width="1" stroke-opacity="0"></use></g></g><g><use xlink:href="#b652WK074u" opacity="1" fill="#000000" fill-opacity="1"></use><g><use xlink:href="#b652WK074u" opacity="1" fill-opacity="0" stroke="#000000" stroke-width="1" stroke-opacity="0"></use></g></g><g><use xlink:href="#a56v8BbSF1" opacity="1" fill="#ff7373" fill-opacity="1"></use><g><use xlink:href="#a56v8BbSF1" opacity="1" fill-opacity="0" stroke="#000000" stroke-width="1" stroke-opacity="0"></use></g></g><g><use xlink:href="#c9cDBQvcj" opacity="1" fill="#594146" fill-opacity="1"></use><g><use xlink:href="#c9cDBQvcj" opacity="1" fill-opacity="0" stroke="#000000" stroke-width="1" stroke-opacity="0"></use></g></g></g></g></svg>