<?xml version="1.0" encoding="UTF-8" standalone="no"?>
<!DOCTYPE svg PUBLIC "-//W3C//DTD SVG 1.1//EN" "http://www.w3.org/Graphics/SVG/1.1/DTD/svg11.dtd">
<svg version="1.1" xmlns="http://www.w3.org/2000/svg" xmlns:xlink="http://www.w3.org/1999/xlink" preserveAspectRatio="xMidYMid meet" viewBox="0 0 950 720" width="950" height="720"><defs><path d="M247.96 655.83C111.59 625.63 0.22 521.62 0.22 366.07C0.2 342.54 2.75 319.07 7.81 296.1C35.46 291.64 173.71 269.37 422.55 229.29C614.52 198.37 721.17 181.19 742.5 177.76C765.48 192.79 787.36 209.47 807.95 227.64C787.53 235.43 685.45 274.37 501.7 344.47L357.22 399.58L519.47 359.25C721.52 309.04 833.77 281.14 856.22 275.56C876.67 298.42 895.27 322.89 911.82 348.72C905.03 353.8 871.08 379.18 809.98 424.86C879.01 392.18 917.37 374.03 925.04 370.4C925.77 371.66 926.35 372.67 926.49 372.92C998.68 498.89 907.69 655.83 762.5 655.83C659.59 655.83 299.41 655.83 247.96 655.83Z" id="avA2iSjyb"></path><path d="M408.18 199.95C265.83 230.52 117.85 262.78 10.11 286.37C10.12 286.34 10.18 286.12 10.18 286.09C14.8 268.43 24.34 252.45 37.69 240.01C119.38 163.04 221.97 111.87 332.6 92.91C332.6 92.91 332.61 92.91 332.61 92.91C364.66 87.45 397.11 84.71 429.62 84.72C516.48 84.6 602.21 104.33 680.28 142.4C602.39 158.49 506.64 178.82 408.18 199.95Z" id="atM2gZeO8"></path><path d="M97.39 725L97.39 0L807.63 0L807.63 725L97.39 725ZM164.64 511.76L742.02 511.76L742.02 62.33L164.64 62.33L164.64 511.76Z" id="f779StRQm"></path><path d="M437.88 158.04C437.88 158.04 404.12 153.72 382.47 198.78C362.29 240.78 334.43 281.33 377.98 291.16C378.51 289.53 381.13 281.37 385.85 266.68C388.77 282.46 390.4 291.23 390.72 292.98C396.92 293.43 403.15 293.54 409.36 293.3C456 291.8 500.42 293.74 498.99 277.01C497.09 254.76 506.88 217.47 490.03 189C472.52 159.42 448.31 164.23 437.88 158.04Z" id="b1ucYUVxko"></path><path d="M370.5 469.94C335.07 494.54 315.38 508.21 311.45 510.94C311.45 510.94 277 547.03 301.61 547.03C326.21 547.03 336.05 515.87 336.05 515.87C341.08 513.68 366.23 502.74 411.5 483.06L370.5 469.94Z" id="c1EMjFMuAh"></path><path d="M394.28 310.01C394.28 310.01 342.61 469.94 359.01 478.14C375.42 486.34 411.5 491.26 411.5 491.26C408.06 455.01 397.73 346.26 394.28 310.01Z" id="bUGVUulb"></path><path d="M394.28 310.01C394.28 310.01 342.61 469.94 359.01 478.14C375.42 486.34 411.5 491.26 411.5 491.26C408.06 455.01 397.73 346.26 394.28 310.01Z" id="bnve7CC1J"></path><path d="M440.41 511.76C489.99 486.67 517.53 472.73 523.04 469.94C524.86 471.12 526.61 472.41 528.27 473.81C540.53 484.12 550.26 497.11 556.72 511.76C541.21 511.76 502.44 511.76 440.41 511.76Z" id="g2NlLGXmxt"></path><path d="M427.09 183.71C403.53 183.71 384.44 202.8 384.44 226.36C384.44 249.91 403.53 269 427.09 269C450.64 269 469.73 249.91 469.73 226.36C469.73 202.8 450.64 183.71 427.09 183.71Z" id="i4xY3YnT"></path><path d="M426.27 261.62C426.27 261.62 436.11 292.79 426.27 304.27C426.27 304.27 480.39 287.87 480.39 287.87C480.39 287.87 457.43 255.06 463.99 240.3C456.45 244.56 433.81 257.36 426.27 261.62Z" id="a1C8N346f"></path><path d="M520.75 404.02C518.68 417.49 517.53 424.97 517.3 426.47C517.3 426.47 519.04 431.57 521.16 439C523.91 448.7 527.31 462.36 528.27 473.81C529.27 485.42 527.77 494.77 520.58 495.36C510.28 496.21 504.92 502.46 499.57 511.76C487.7 511.76 392.78 511.76 380.91 511.76C381.22 506.65 381.6 501.33 382.04 495.87C382.41 490.95 382.78 486.89 382.86 485.9C383.19 482.03 394.82 409.31 386.08 393.67C368.04 361.35 391 342.82 391 342.82C391 342.82 394.28 318.21 394.28 310.01C394.28 303.58 419.48 296.15 430.37 293.23C431.07 293.05 431.7 292.87 432.27 292.74C434.16 292.25 435.29 291.97 435.29 291.97C436.15 291.62 443.04 288.79 443.9 288.44C443.9 288.44 468.09 283.77 469.73 280.49C470.32 279.31 471.98 278.34 473.93 277.5C477.39 276.02 481.81 274.98 482.86 273.93C484.35 272.2 485.71 270.36 486.91 268.41C489.89 264.76 494.16 262.56 498.98 261.36C516.6 256.92 541.91 265.72 541.91 265.72C541.31 269.58 538.36 288.85 533.05 323.54L520.75 404.02Z" id="b5ZJ86dKfh"></path><path d="M572.25 368.24C536.82 392.85 517.14 406.51 513.2 409.25C513.2 409.25 478.75 445.33 503.36 445.33C503.36 445.33 537.8 414.17 537.8 414.17C542.83 411.98 567.99 401.05 613.26 381.36L572.25 368.24Z" id="ddL3EnQzN"></path><path d="M530.42 269C537.31 267.04 541.14 265.94 541.91 265.72C541.91 265.72 658.36 313.29 655.08 354.3C655.08 354.3 656.72 395.31 637.04 396.95C637.04 396.95 559.95 378.9 561.59 375.62C563.23 372.34 574.71 355.94 574.71 355.94C571.76 353.64 557 342.16 530.42 321.49L530.42 269Z" id="a1ndxlYlrR"></path><path d="M469.73 219.8C466.11 219.8 463.17 222.73 463.17 226.36C463.17 229.98 466.11 232.92 469.73 232.92C473.36 232.92 476.29 229.98 476.29 226.36C476.29 222.73 473.36 219.8 469.73 219.8Z" id="eDOJcM4ld"></path><path d="M664.61 516C664.28 515.45 656.41 502.31 653.68 475.03C651.18 450 652.79 407.81 674.67 348.96C716.12 237.47 665.12 147.52 664.6 146.62C664.85 146.48 666.86 145.31 667.11 145.16C667.25 145.39 680.41 168.32 688.18 204.85C698.45 253.26 694.71 303.61 677.4 349.98C636.02 461.27 666.78 513.96 667.1 514.48C666.6 514.78 665.11 515.69 664.61 516Z" id="b1gJXO7sWS"></path><path d="M648.41 102.27C637.97 102.27 629.5 110.73 629.5 121.17C629.5 131.61 637.97 140.08 648.41 140.08C658.85 140.08 667.31 131.61 667.31 121.17C667.31 110.73 658.85 102.27 648.41 102.27Z" id="a9BHOGXE0"></path><path d="M708.02 172.07C697.58 172.07 689.12 180.53 689.12 190.97C689.12 201.41 697.58 209.87 708.02 209.87C718.46 209.87 726.93 201.41 726.93 190.97C726.93 180.53 718.46 172.07 708.02 172.07Z" id="c6siH2vnG"></path><path d="M667.31 218.6C656.87 218.6 648.41 227.06 648.41 237.5C648.41 247.94 656.87 256.41 667.31 256.41C677.75 256.41 686.21 247.94 686.21 237.5C686.21 227.06 677.75 218.6 667.31 218.6Z" id="aiqPk7xqK"></path><path d="M716.75 257.86C706.31 257.86 697.85 266.32 697.85 276.76C697.85 287.2 706.31 295.67 716.75 295.67C727.19 295.67 735.65 287.2 735.65 276.76C735.65 266.32 727.19 257.86 716.75 257.86Z" id="agZMLXajw"></path><path d="M652.77 318.93C642.33 318.93 633.86 327.4 633.86 337.84C633.86 348.28 642.33 356.74 652.77 356.74C663.21 356.74 671.67 348.28 671.67 337.84C671.67 327.4 663.21 318.93 652.77 318.93Z" id="b1cD2B2qGp"></path><path d="M676.03 516.69C676.03 516.69 657.13 470.16 713.84 435.26C713.84 435.26 676.03 516.69 676.03 516.69Z" id="bkiADmoNR"></path><path d="M652.79 515.85C652.79 515.85 644.18 466.37 577.6 466.79C577.6 466.79 652.79 515.85 652.79 515.85Z" id="e3zIF2enT4"></path><path d="M473.19 220.6C473.71 218.73 476.31 209.39 481 192.58C440.9 183.68 415.83 178.11 405.81 175.88C419.29 184.83 425.34 207.48 473.19 220.6Z" id="b5fLwchDQ5"></path></defs><g><g><g><use xlink:href="#avA2iSjyb" opacity="1" fill="#f2f2f2" fill-opacity="1"></use><g><use xlink:href="#avA2iSjyb" opacity="1" fill-opacity="0" stroke="#000000" stroke-width="1" stroke-opacity="0"></use></g></g><g><use xlink:href="#atM2gZeO8" opacity="1" fill="#f2f2f2" fill-opacity="1"></use><g><use xlink:href="#atM2gZeO8" opacity="1" fill-opacity="0" stroke="#000000" stroke-width="1" stroke-opacity="0"></use></g></g><g><use xlink:href="#f779StRQm" opacity="1" fill="#3f3d56" fill-opacity="1"></use><g><use xlink:href="#f779StRQm" opacity="1" fill-opacity="0" stroke="#000000" stroke-width="1" stroke-opacity="0"></use></g></g><g><use xlink:href="#b1ucYUVxko" opacity="1" fill="#2f2e41" fill-opacity="1"></use><g><use xlink:href="#b1ucYUVxko" opacity="1" fill-opacity="0" stroke="#000000" stroke-width="1" stroke-opacity="0"></use></g></g><g><use xlink:href="#c1EMjFMuAh" opacity="1" fill="#ffb8b8" fill-opacity="1"></use><g><use xlink:href="#c1EMjFMuAh" opacity="1" fill-opacity="0" stroke="#000000" stroke-width="1" stroke-opacity="0"></use></g></g><g><use xlink:href="#bUGVUulb" opacity="1" fill="#d0cde1" fill-opacity="1"></use><g><use xlink:href="#bUGVUulb" opacity="1" fill-opacity="0" stroke="#000000" stroke-width="1" stroke-opacity="0"></use></g></g><g><use xlink:href="#bnve7CC1J" opacity="1" fill="#d0cde1" fill-opacity="1"></use><g><use xlink:href="#bnve7CC1J" opacity="1" fill-opacity="0" stroke="#000000" stroke-width="1" stroke-opacity="0"></use></g></g><g><use xlink:href="#g2NlLGXmxt" opacity="1" fill="#2f2e41" fill-opacity="1"></use><g><use xlink:href="#g2NlLGXmxt" opacity="1" fill-opacity="0" stroke="#000000" stroke-width="1" stroke-opacity="0"></use></g></g><g><use xlink:href="#i4xY3YnT" opacity="1" fill="#ffb8b8" fill-opacity="1"></use><g><use xlink:href="#i4xY3YnT" opacity="1" fill-opacity="0" stroke="#000000" stroke-width="1" stroke-opacity="0"></use></g></g><g><use xlink:href="#a1C8N346f" opacity="1" fill="#ffb8b8" fill-opacity="1"></use><g><use xlink:href="#a1C8N346f" opacity="1" fill-opacity="0" stroke="#000000" stroke-width="1" stroke-opacity="0"></use></g></g><g><use xlink:href="#b5ZJ86dKfh" opacity="1" fill="#d0cde1" fill-opacity="1"></use><g><use xlink:href="#b5ZJ86dKfh" opacity="1" fill-opacity="0" stroke="#000000" stroke-width="1" stroke-opacity="0"></use></g></g><g><use xlink:href="#ddL3EnQzN" opacity="1" fill="#ffb8b8" fill-opacity="1"></use><g><use xlink:href="#ddL3EnQzN" opacity="1" fill-opacity="0" stroke="#000000" stroke-width="1" stroke-opacity="0"></use></g></g><g><use xlink:href="#a1ndxlYlrR" opacity="1" fill="#d0cde1" fill-opacity="1"></use><g><use xlink:href="#a1ndxlYlrR" opacity="1" fill-opacity="0" stroke="#000000" stroke-width="1" stroke-opacity="0"></use></g></g><g><use xlink:href="#eDOJcM4ld" opacity="1" fill="#ffb8b8" fill-opacity="1"></use><g><use xlink:href="#eDOJcM4ld" opacity="1" fill-opacity="0" stroke="#000000" stroke-width="1" stroke-opacity="0"></use></g></g><g><use xlink:href="#b1gJXO7sWS" opacity="1" fill="#3f3d56" fill-opacity="1"></use><g><use xlink:href="#b1gJXO7sWS" opacity="1" fill-opacity="0" stroke="#000000" stroke-width="1" stroke-opacity="0"></use></g></g><g><use xlink:href="#a9BHOGXE0" opacity="1" fill="#e56767" fill-opacity="1"></use><g><use xlink:href="#a9BHOGXE0" opacity="1" fill-opacity="0" stroke="#000000" stroke-width="1" stroke-opacity="0"></use></g></g><g><use xlink:href="#c6siH2vnG" opacity="1" fill="#3f3d56" fill-opacity="1"></use><g><use xlink:href="#c6siH2vnG" opacity="1" fill-opacity="0" stroke="#000000" stroke-width="1" stroke-opacity="0"></use></g></g><g><use xlink:href="#aiqPk7xqK" opacity="1" fill="#e56767" fill-opacity="1"></use><g><use xlink:href="#aiqPk7xqK" opacity="1" fill-opacity="0" stroke="#000000" stroke-width="1" stroke-opacity="0"></use></g></g><g><use xlink:href="#agZMLXajw" opacity="1" fill="#e56767" fill-opacity="1"></use><g><use xlink:href="#agZMLXajw" opacity="1" fill-opacity="0" stroke="#000000" stroke-width="1" stroke-opacity="0"></use></g></g><g><use xlink:href="#b1cD2B2qGp" opacity="1" fill="#3f3d56" fill-opacity="1"></use><g><use xlink:href="#b1cD2B2qGp" opacity="1" fill-opacity="0" stroke="#000000" stroke-width="1" stroke-opacity="0"></use></g></g><g><use xlink:href="#bkiADmoNR" opacity="1" fill="#3f3d56" fill-opacity="1"></use><g><use xlink:href="#bkiADmoNR" opacity="1" fill-opacity="0" stroke="#000000" stroke-width="1" stroke-opacity="0"></use></g></g><g><use xlink:href="#e3zIF2enT4" opacity="1" fill="#3f3d56" fill-opacity="1"></use><g><use xlink:href="#e3zIF2enT4" opacity="1" fill-opacity="0" stroke="#000000" stroke-width="1" stroke-opacity="0"></use></g></g><g><use xlink:href="#b5fLwchDQ5" opacity="1" fill="#2f2e41" fill-opacity="1"></use><g><use xlink:href="#b5fLwchDQ5" opacity="1" fill-opacity="0" stroke="#000000" stroke-width="1" stroke-opacity="0"></use></g></g></g></g></svg>